<svg width="21" height="21" viewBox="0 0 21 21" fill="none" xmlns="http://www.w3.org/2000/svg">
<path d="M10.4693 14.1123C12.1952 14.1123 13.5943 12.7132 13.5943 10.9873C13.5943 9.26141 12.1952 7.8623 10.4693 7.8623C8.74341 7.8623 7.3443 9.26141 7.3443 10.9873C7.3443 12.7132 8.74341 14.1123 10.4693 14.1123Z" stroke="white" style="stroke:white;stroke-opacity:1;" stroke-width="1.24684" stroke-miterlimit="10"/>
<path d="M13.9068 3.7998H7.0318C4.96073 3.7998 3.2818 5.47874 3.2818 7.54981V14.4248C3.2818 16.4959 4.96073 18.1748 7.0318 18.1748H13.9068C15.9779 18.1748 17.6568 16.4959 17.6568 14.4248V7.54981C17.6568 5.47874 15.9779 3.7998 13.9068 3.7998Z" stroke="white" style="stroke:white;stroke-opacity:1;" stroke-width="1.24684" stroke-linecap="round" stroke-linejoin="round"/>
<path d="M14.5318 7.8623C15.0496 7.8623 15.4693 7.44257 15.4693 6.9248C15.4693 6.40704 15.0496 5.9873 14.5318 5.9873C14.014 5.9873 13.5943 6.40704 13.5943 6.9248C13.5943 7.44257 14.014 7.8623 14.5318 7.8623Z" fill="white" style="fill:white;fill-opacity:1;"/>
</svg>
