<svg width="21" height="21" viewBox="0 0 21 21" fill="none" xmlns="http://www.w3.org/2000/svg">
<path d="M17.1866 4.1123H4.68665C4.34147 4.1123 4.06165 4.39213 4.06165 4.7373V17.2373C4.06165 17.5825 4.34147 17.8623 4.68665 17.8623H17.1866C17.5318 17.8623 17.8116 17.5825 17.8116 17.2373V4.7373C17.8116 4.39213 17.5318 4.1123 17.1866 4.1123Z" stroke="white" style="stroke:white;stroke-opacity:1;" stroke-width="1.24684" stroke-linecap="round" stroke-linejoin="round"/>
<path d="M10.3116 9.7373V14.7373" stroke="white" style="stroke:white;stroke-opacity:1;" stroke-width="1.24684" stroke-linecap="round" stroke-linejoin="round"/>
<path d="M7.81165 9.7373V14.7373" stroke="white" style="stroke:white;stroke-opacity:1;" stroke-width="1.24684" stroke-linecap="round" stroke-linejoin="round"/>
<path d="M10.3116 11.9248C10.3116 11.3446 10.5421 10.7882 10.9523 10.378C11.3626 9.96777 11.919 9.7373 12.4991 9.7373C13.0793 9.7373 13.6357 9.96777 14.0459 10.378C14.4562 10.7882 14.6866 11.3446 14.6866 11.9248V14.7373" stroke="white" style="stroke:white;stroke-opacity:1;" stroke-width="1.24684" stroke-linecap="round" stroke-linejoin="round"/>
<path d="M7.81165 8.1748C8.32941 8.1748 8.74915 7.75507 8.74915 7.2373C8.74915 6.71954 8.32941 6.2998 7.81165 6.2998C7.29388 6.2998 6.87415 6.71954 6.87415 7.2373C6.87415 7.75507 7.29388 8.1748 7.81165 8.1748Z" fill="white" style="fill:white;fill-opacity:1;"/>
</svg>
