<svg width="21" height="21" viewBox="0 0 21 21" fill="none" xmlns="http://www.w3.org/2000/svg">
<path d="M7.62599 11.5243L14.6508 17.7061C14.7321 17.7776 14.8305 17.8268 14.9365 17.8488C15.0425 17.8709 15.1524 17.865 15.2555 17.8318C15.3585 17.7985 15.4512 17.7391 15.5243 17.6593C15.5975 17.5795 15.6487 17.4821 15.6729 17.3765L18.6115 4.55367C18.6369 4.4428 18.6315 4.32711 18.596 4.21905C18.5605 4.11098 18.4962 4.01466 18.4101 3.94044C18.3239 3.86623 18.219 3.81694 18.1069 3.79789C17.9948 3.77884 17.8796 3.79075 17.7737 3.83234L3.35521 9.49675C3.22955 9.54612 3.12325 9.63485 3.05222 9.74967C2.9812 9.86448 2.94926 9.99921 2.96119 10.1337C2.97311 10.2682 3.02827 10.3952 3.1184 10.4957C3.20852 10.5962 3.32878 10.6649 3.46117 10.6913L7.62599 11.5243Z" stroke="white" style="stroke:white;stroke-opacity:1;" stroke-width="1.24684" stroke-linecap="round" stroke-linejoin="round"/>
<path d="M7.62598 11.5242L18.2597 3.84424" stroke="white" style="stroke:white;stroke-opacity:1;" stroke-width="1.24684" stroke-linecap="round" stroke-linejoin="round"/>
<path d="M11.1343 14.6118L8.69292 17.0532C8.60551 17.1406 8.49415 17.2001 8.37291 17.2242C8.25167 17.2484 8.126 17.236 8.0118 17.1887C7.8976 17.1414 7.79999 17.0613 7.73131 16.9585C7.66263 16.8557 7.62598 16.7349 7.62598 16.6113V11.5244" stroke="white" style="stroke:white;stroke-opacity:1;" stroke-width="1.24684" stroke-linecap="round" stroke-linejoin="round"/>
</svg>
