<svg width="21" height="21" viewBox="0 0 21 21" fill="none" xmlns="http://www.w3.org/2000/svg">
<path d="M12.905 10.9873L9.15497 8.4873V13.4873L12.905 10.9873Z" stroke="white" style="stroke:white;stroke-opacity:1;" stroke-width="1.24684" stroke-linecap="round" stroke-linejoin="round"/>
<path d="M2.27997 10.9873C2.27997 13.3119 2.52014 14.6759 2.70271 15.3769C2.75151 15.5683 2.84523 15.7454 2.97611 15.8934C3.10698 16.0414 3.27124 16.1561 3.45527 16.228C6.07066 17.233 10.405 17.2054 10.405 17.2054C10.405 17.2054 14.7392 17.233 17.3546 16.228C17.5387 16.1561 17.7029 16.0414 17.8338 15.8934C17.9647 15.7454 18.0584 15.5683 18.1072 15.3769C18.2898 14.6759 18.53 13.3119 18.53 10.9873C18.53 8.66263 18.2898 7.2987 18.1072 6.5977C18.0584 6.40625 17.9647 6.22918 17.8338 6.08117C17.703 5.93316 17.5387 5.81846 17.3547 5.74658C14.7393 4.74152 10.405 4.76912 10.405 4.76912C10.405 4.76912 6.07071 4.74152 3.4553 5.74657C3.27126 5.81845 3.107 5.93314 2.97613 6.08116C2.84525 6.22917 2.75153 6.40624 2.70273 6.59769C2.52015 7.29869 2.27997 8.66263 2.27997 10.9873Z" stroke="white" style="stroke:white;stroke-opacity:1;" stroke-width="1.24684" stroke-linecap="round" stroke-linejoin="round"/>
</svg>
