<svg width="531" height="113" viewBox="0 0 531 113" fill="none" xmlns="http://www.w3.org/2000/svg">
<path d="M530.444 47.7342C530.572 47.4899 530.479 47.1875 530.234 47.0588L526.253 44.9611C526.009 44.8324 525.706 44.9261 525.578 45.1704C525.449 45.4147 525.543 45.7171 525.787 45.8459L529.326 47.7104L527.461 51.2493C527.332 51.4936 527.426 51.796 527.67 51.9247C527.915 52.0534 528.217 51.9597 528.346 51.7154L530.444 47.7342ZM259.501 100.501L259.967 100.682L259.501 100.501ZM120.5 74.5008L120.745 74.9368L120.5 74.5008ZM388.001 42.5009L388.366 42.1596L388.001 42.5009ZM1.50033 0.997705C1.49951 0.832883 1.50029 0.71896 1.50264 0.648423C1.5039 0.610727 1.50524 0.59839 1.50495 0.600792C1.50475 0.602496 1.50405 0.608103 1.50257 0.616385C1.50128 0.62352 1.49808 0.640283 1.49155 0.662084C1.48708 0.677043 1.47104 0.729877 1.43181 0.78913C1.40154 0.834852 1.26983 1.01341 1.01326 1.01126C0.776762 1.00927 0.649977 0.851356 0.62619 0.820895C0.587937 0.771912 0.568861 0.72779 0.563098 0.714223C0.555067 0.695319 0.550415 0.680698 0.548483 0.674389C0.54626 0.667132 0.545043 0.662277 0.544712 0.660938C0.544394 0.659655 0.547296 0.672228 0.553113 0.708328C0.564045 0.776167 0.57853 0.883882 0.597332 1.03573L1.58975 0.912839C1.5709 0.760569 1.55449 0.636837 1.54038 0.549231C1.53367 0.507607 1.52551 0.461457 1.51547 0.420865C1.51128 0.403955 1.50148 0.365565 1.48349 0.323234C1.47563 0.304721 1.45453 0.256878 1.41434 0.205406C1.38861 0.17246 1.25996 0.0132955 1.02167 0.0112906C0.763317 0.00911711 0.629895 0.188902 0.597989 0.237095C0.557124 0.29882 0.539526 0.355368 0.53356 0.375298C0.519439 0.422468 0.514152 0.464383 0.512097 0.481485C0.507 0.523906 0.504644 0.571836 0.503201 0.615071C0.500153 0.706396 0.499518 0.836988 0.50034 1.00267L1.50033 0.997705ZM0.824974 2.96283C0.893619 3.53427 0.975902 4.20033 1.07417 4.95249L2.06574 4.82295C1.96801 4.07491 1.88616 3.41235 1.81784 2.84356L0.824974 2.96283ZM1.34887 6.96779C1.43662 7.58579 1.53305 8.24216 1.63897 8.93403L2.62745 8.78272C2.52212 8.0946 2.42621 7.44182 2.33894 6.82721L1.34887 6.96779ZM1.9496 10.8928C2.05534 11.5371 2.16853 12.2056 2.28967 12.8963L3.27463 12.7236C3.15415 12.0365 3.04157 11.3717 2.9364 10.7308L1.9496 10.8928ZM2.63922 14.8291C2.75974 15.4759 2.88687 16.139 3.02094 16.817L4.00195 16.6231C3.86861 15.9487 3.74217 15.2893 3.6223 14.646L2.63922 14.8291ZM3.41508 18.7552C3.54917 19.3967 3.68927 20.0497 3.83566 20.7132L4.81218 20.4978C4.66661 19.838 4.52728 19.1886 4.39393 18.5506L3.41508 18.7552ZM4.27895 22.6701C4.42639 23.3042 4.57947 23.9467 4.7384 24.5968L5.70979 24.3593C5.55178 23.713 5.39958 23.0742 5.25297 22.4436L4.27895 22.6701ZM5.23292 26.5688C5.39438 27.1969 5.56126 27.831 5.73372 28.4705L6.69924 28.2102C6.52781 27.5745 6.36193 26.9441 6.20142 26.3198L5.23292 26.5688ZM6.26704 30.4014C6.44766 31.04 6.63386 31.6833 6.82579 32.3307L7.78454 32.0464C7.59383 31.4031 7.4088 30.7639 7.22929 30.1292L6.26704 30.4014ZM7.40127 34.2274C7.5986 34.8631 7.80151 35.5021 8.01013 36.1438L8.96114 35.8346C8.75392 35.1972 8.55236 34.5624 8.35631 33.9309L7.40127 34.2274ZM8.63985 38.0372C8.85249 38.6622 9.07063 39.2893 9.29439 39.918L10.2365 39.5827C10.0143 38.9585 9.79773 38.3358 9.58656 37.7151L8.63985 38.0372ZM9.98269 41.8082C10.2134 42.4277 10.4497 43.0482 10.6917 43.6692L11.6235 43.3062C11.3833 42.6899 11.1488 42.0741 10.9198 41.4592L9.98269 41.8082ZM11.4307 45.5235C11.6827 46.1418 11.9405 46.7602 12.2042 47.3783L13.124 46.9859C12.8624 46.3729 12.6067 45.7594 12.3567 45.146L11.4307 45.5235ZM13.0012 49.2046C13.2721 49.8114 13.5488 50.4175 13.8315 51.0224L14.7375 50.599C14.4573 49.9995 14.1829 49.3986 13.9143 48.7969L13.0012 49.2046ZM14.6975 52.8329C14.9896 53.4294 15.2876 54.0243 15.5917 54.6172L16.4815 54.1608C16.1803 53.5736 15.8851 52.9842 15.5957 52.3932L14.6975 52.8329ZM16.5217 56.3879C16.8378 56.9758 17.1602 57.5613 17.4889 58.1438L18.3598 57.6524C18.0345 57.0759 17.7154 56.4964 17.4024 55.9143L16.5217 56.3879ZM18.4896 59.8748C18.8294 60.4485 19.1756 61.019 19.5284 61.5857L20.3774 61.0572C20.0286 60.4969 19.6861 59.9327 19.35 59.3652L18.4896 59.8748ZM20.6063 63.2742C20.9718 63.8326 21.344 64.3868 21.7229 64.9366L22.5463 64.369C22.1719 63.826 21.8042 63.2783 21.4429 62.7265L20.6063 63.2742ZM22.88 66.5715C23.2725 67.1117 23.6719 67.6469 24.0783 68.1767L24.8718 67.5681C24.4708 67.0453 24.0765 66.517 23.689 65.9837L22.88 66.5715ZM25.3196 69.7509C25.7404 70.27 26.1684 70.7832 26.6036 71.2902L27.3624 70.6389C26.9334 70.1391 26.5114 69.633 26.0963 69.1211L25.3196 69.7509ZM27.9312 72.7921C28.3812 73.2864 28.8386 73.774 29.3034 74.2545L30.0221 73.5592C29.5644 73.0861 29.1139 72.6058 28.6706 72.1189L27.9312 72.7921ZM30.7207 75.6743C31.2007 76.1402 31.6883 76.5986 32.1837 77.049L32.8564 76.3091C32.3693 75.8661 31.8895 75.4152 31.4172 74.9568L30.7207 75.6743ZM33.6891 78.3725C34.1986 78.8054 34.7159 79.23 35.2411 79.6458L35.8618 78.8618C35.3458 78.4532 34.8374 78.036 34.3366 77.6104L33.6891 78.3725ZM36.8408 80.8666C37.3774 81.261 37.922 81.6465 38.4746 82.0225L39.0371 81.1957C38.4947 80.8266 37.9601 80.4482 37.4331 80.0608L36.8408 80.8666ZM40.1558 83.1213C40.7243 83.4778 41.3009 83.8245 41.8858 84.1608L42.3844 83.294C41.8107 82.964 41.2449 82.6239 40.6871 82.2741L40.1558 83.1213ZM43.6352 85.123C44.2256 85.4331 44.8241 85.7329 45.4307 86.022L45.8609 85.1193C45.2661 84.8358 44.6793 84.5418 44.1002 84.2377L43.6352 85.123ZM47.2749 86.8567C47.8825 87.1173 48.4979 87.3674 49.1211 87.6066L49.4794 86.673C48.8683 86.4385 48.2649 86.1933 47.6692 85.9377L47.2749 86.8567ZM51.0059 88.2879C51.6421 88.5039 52.2862 88.7088 52.9383 88.9021L53.2225 87.9433C52.5829 87.7537 51.9513 87.5529 51.3275 87.341L51.0059 88.2879ZM54.8624 89.4327C55.5021 89.5961 56.1492 89.7485 56.8038 89.8898L57.0147 88.9123C56.3723 88.7737 55.7374 88.6241 55.1099 88.4638L54.8624 89.4327ZM58.7901 90.2795C59.4469 90.3958 60.111 90.5009 60.7824 90.5946L60.9207 89.6042C60.2612 89.5122 59.6091 89.4089 58.9644 89.2948L58.7901 90.2795ZM62.744 90.8337C63.4047 90.9026 64.0723 90.9608 64.7469 91.0078L64.8164 90.0102C64.1532 89.964 63.497 89.9068 62.8477 89.8391L62.744 90.8337ZM66.7915 91.1154C67.4416 91.1387 68.0979 91.1518 68.7605 91.1546L68.7647 90.1547C68.1125 90.1519 67.4667 90.139 66.8272 90.1161L66.7915 91.1154ZM70.7446 91.1325C71.4122 91.1149 72.086 91.087 72.7661 91.0486L72.7097 90.0502C72.0395 90.088 71.3757 90.1155 70.7182 90.1329L70.7446 91.1325ZM74.8123 90.9027C75.4523 90.8477 76.0977 90.7836 76.7486 90.7102L76.6364 89.7165C75.9943 89.7889 75.3578 89.8522 74.7267 89.9064L74.8123 90.9027ZM78.7175 90.4617C79.3793 90.3695 80.0466 90.2678 80.7194 90.1565L80.5562 89.1699C79.8917 89.2799 79.2328 89.3803 78.5795 89.4713L78.7175 90.4617ZM82.7523 89.7938C83.3795 89.6739 84.0114 89.5457 84.6481 89.4092L84.4384 88.4315C83.809 88.5664 83.1843 88.6931 82.5645 88.8116L82.7523 89.7938ZM86.5723 88.9744C87.2184 88.821 87.8693 88.6591 88.525 88.4886L88.2734 87.5208C87.6245 87.6896 86.9804 87.8497 86.3413 88.0015L86.5723 88.9744ZM90.5066 87.9511C91.1384 87.7728 91.7745 87.5865 92.415 87.3922L92.1247 86.4353C91.4903 86.6277 90.8604 86.8122 90.2349 86.9888L90.5066 87.9511ZM94.2739 86.8099C94.8976 86.6083 95.5254 86.3993 96.1573 86.1827L95.833 85.2367C95.2066 85.4514 94.5844 85.6586 93.9664 85.8583L94.2739 86.8099ZM98.0654 85.51C98.7056 85.2781 99.3499 85.0386 99.9984 84.7913L99.642 83.8569C98.9987 84.1022 98.3597 84.3398 97.7249 84.5698L98.0654 85.51ZM101.829 84.0766C102.427 83.8382 103.027 83.5934 103.632 83.3419L103.248 82.4186C102.648 82.6683 102.051 82.9113 101.459 83.1479L101.829 84.0766ZM105.455 82.5677C106.066 82.303 106.681 82.0316 107.299 81.7535L106.889 80.8415C106.275 81.1177 105.665 81.3872 105.058 81.65L105.455 82.5677ZM109.165 80.899C109.769 80.6173 110.377 80.3292 110.987 80.0348L110.553 79.134C109.946 79.4266 109.343 79.7128 108.742 79.9927L109.165 80.899ZM112.721 79.1862C113.302 78.8976 113.886 78.6032 114.473 78.3031L114.017 77.4128C113.434 77.7112 112.854 78.0037 112.276 78.2906L112.721 79.1862ZM116.242 77.3854C116.835 77.0736 117.431 76.756 118.03 76.4325L117.555 75.5527C116.959 75.8744 116.366 76.1903 115.777 76.5003L116.242 77.3854ZM119.836 75.4442C120.138 75.2766 120.441 75.1074 120.745 74.9368L120.256 74.0648C119.953 74.2346 119.652 74.4028 119.351 74.5696L119.836 75.4442ZM120.745 74.9368C121.046 74.7681 121.345 74.6009 121.644 74.435L121.159 73.5606C120.859 73.7272 120.557 73.8953 120.256 74.0648L120.745 74.9368ZM123.428 73.4572C124.02 73.1368 124.609 72.8222 125.195 72.5131L124.728 71.6287C124.139 71.9394 123.547 72.2558 122.952 72.5777L123.428 73.4572ZM126.943 71.6024C127.522 71.3043 128.099 71.0118 128.673 70.7248L128.225 69.8305C127.648 70.1192 127.068 70.4133 126.486 70.713L126.943 71.6024ZM130.385 69.8799C130.986 69.5879 131.583 69.3019 132.176 69.0218L131.75 68.1174C131.152 68.3991 130.552 68.6869 129.948 68.9807L130.385 69.8799ZM134.015 68.1687C134.625 67.8907 135.231 67.619 135.833 67.3536L135.43 66.4385C134.824 66.7057 134.214 66.9791 133.6 67.2589L134.015 68.1687ZM137.63 66.5762C138.225 66.3233 138.817 66.0766 139.406 65.836L139.028 64.9103C138.435 65.1527 137.839 65.4011 137.239 65.6558L137.63 66.5762ZM141.195 65.1193C141.833 64.869 142.466 64.626 143.096 64.3901L142.745 63.4537C142.11 63.6914 141.472 63.9362 140.829 64.1884L141.195 65.1193ZM144.972 63.7038C145.594 63.4821 146.211 63.2675 146.824 63.0599L146.504 62.1127C145.885 62.3221 145.263 62.5385 144.636 62.7619L144.972 63.7038ZM148.652 62.4576C149.274 62.2585 149.891 62.0666 150.504 61.8819L150.216 60.9244C149.597 61.1108 148.974 61.3044 148.347 61.5052L148.652 62.4576ZM152.45 61.3155C153.093 61.1347 153.732 60.9618 154.367 60.7966L154.115 59.8289C153.474 59.9956 152.829 60.1702 152.179 60.3528L152.45 61.3155ZM156.256 60.3245C156.881 60.1748 157.502 60.0328 158.118 59.8983L157.904 58.9213C157.282 59.0573 156.655 59.2008 156.023 59.352L156.256 60.3245ZM160.08 59.492C160.74 59.3629 161.395 59.2425 162.045 59.1307L161.875 58.1452C161.218 58.2583 160.556 58.38 159.888 58.5106L160.08 59.492ZM163.977 58.8208C164.616 58.726 165.25 58.6395 165.878 58.5613L165.755 57.5689C165.118 57.6482 164.477 57.7357 163.83 57.8317L163.977 58.8208ZM167.85 58.3409C168.518 58.2748 169.18 58.2181 169.836 58.1705L169.764 57.1731C169.099 57.2213 168.428 57.2788 167.751 57.3458L167.85 58.3409ZM171.787 58.0552C172.432 58.0258 173.07 58.0054 173.703 57.9937L173.684 56.9939C173.043 57.0057 172.395 57.0265 171.742 57.0563L171.787 58.0552ZM175.701 57.9857C176.366 57.9928 177.026 58.0097 177.679 58.0361L177.719 57.0369C177.056 57.0101 176.387 56.993 175.711 56.9858L175.701 57.9857ZM179.618 58.1436C180.27 58.1896 180.915 58.2453 181.554 58.3102L181.655 57.3153C181.006 57.2493 180.35 57.1928 179.688 57.1461L179.618 58.1436ZM183.532 58.5435C184.184 58.6311 184.829 58.7286 185.467 58.8356L185.633 57.8493C184.984 57.7406 184.328 57.6415 183.665 57.5524L183.532 58.5435ZM187.362 59.1846C188.017 59.3165 188.665 59.4584 189.306 59.6101L189.537 58.637C188.885 58.4827 188.226 58.3384 187.559 58.2043L187.362 59.1846ZM191.21 60.095C191.838 60.2661 192.458 60.4467 193.071 60.6362L193.366 59.6809C192.743 59.488 192.112 59.3044 191.473 59.1303L191.21 60.095ZM194.947 61.2517C195.57 61.468 196.185 61.6938 196.793 61.9285L197.153 60.9955C196.535 60.7568 195.909 60.5271 195.275 60.307L194.947 61.2517ZM198.596 62.659C199.203 62.9171 199.803 63.1841 200.395 63.4597L200.817 62.553C200.214 62.2728 199.604 62.0012 198.987 61.7386L198.596 62.659ZM202.164 64.3188C202.746 64.6135 203.32 64.9164 203.887 65.227L204.368 64.3499C203.791 64.0342 203.207 63.7263 202.615 63.4266L202.164 64.3188ZM205.6 66.2008C206.167 66.535 206.726 66.8769 207.277 67.2258L207.812 66.3808C207.252 66.0264 206.684 65.6791 206.108 65.3395L205.6 66.2008ZM208.91 68.2937C209.457 68.6633 209.996 69.0398 210.529 69.4227L211.113 68.6109C210.573 68.2224 210.025 67.8403 209.47 67.4651L208.91 68.2937ZM212.107 70.5926C212.626 70.9892 213.139 71.3916 213.644 71.7994L214.272 71.0213C213.76 70.608 213.24 70.1999 212.714 69.7978L212.107 70.5926ZM215.165 73.0614C215.665 73.4873 216.158 73.9182 216.644 74.3534L217.311 73.6087C216.819 73.168 216.32 72.7316 215.814 72.3002L215.165 73.0614ZM218.089 75.6802C218.571 76.133 219.045 76.5899 219.513 77.0502L220.215 76.3375C219.742 75.872 219.262 75.4098 218.774 74.9516L218.089 75.6802ZM220.895 78.4408C221.356 78.9139 221.809 79.3899 222.256 79.8682L222.987 79.1857C222.536 78.7025 222.077 78.2215 221.612 77.7433L220.895 78.4408ZM223.589 81.3237C224.027 81.8108 224.458 82.2996 224.882 82.7893L225.638 82.1344C225.21 81.6403 224.775 81.1471 224.333 80.6554L223.589 81.3237ZM226.171 84.3022C226.594 84.8081 227.011 85.3144 227.422 85.8203L228.198 85.1902C227.785 84.6805 227.365 84.1702 226.937 83.6602L226.171 84.3022ZM228.651 87.3572C229.064 87.8808 229.47 88.4033 229.869 88.9239L230.662 88.315C230.26 87.7913 229.852 87.2654 229.436 86.7382L228.651 87.3572ZM231.049 90.4792C231.452 91.017 231.849 91.5519 232.239 92.083L233.045 91.491C232.653 90.9575 232.254 90.42 231.849 89.8792L231.049 90.4792ZM233.396 93.6723C233.787 94.2141 234.172 94.7508 234.55 95.2815L235.365 94.701C234.985 94.169 234.599 93.6305 234.207 93.0868L233.396 93.6723ZM235.698 96.8982C236.082 97.4418 236.46 97.9774 236.831 98.5041L237.648 97.9279C237.277 97.4012 236.899 96.8651 236.514 96.3209L235.698 96.8982ZM237.984 100.137C238.37 100.682 238.749 101.215 239.121 101.734L239.934 101.152C239.563 100.634 239.185 100.103 238.8 99.5592L237.984 100.137ZM240.3 103.361C240.701 103.907 241.095 104.435 241.483 104.943L242.278 104.337C241.895 103.835 241.504 103.311 241.106 102.769L240.3 103.361ZM242.715 106.514C243.158 107.06 243.593 107.575 244.022 108.056L244.768 107.391C244.352 106.924 243.927 106.42 243.492 105.884L242.715 106.514ZM245.393 109.494C245.911 109.994 246.422 110.438 246.93 110.817L247.528 110.015C247.061 109.667 246.582 109.253 246.089 108.775L245.393 109.494ZM248.746 111.882C249.451 112.177 250.162 112.327 250.88 112.298L250.84 111.298C250.292 111.321 249.725 111.208 249.131 110.959L248.746 111.882ZM252.975 111.68C253.545 111.36 254.101 110.917 254.648 110.351L253.93 109.656C253.435 110.167 252.954 110.545 252.485 110.808L252.975 111.68ZM255.913 108.808C256.27 108.305 256.627 107.744 256.985 107.125L256.119 106.624C255.774 107.221 255.434 107.755 255.098 108.229L255.913 108.808ZM257.961 105.296C258.231 104.75 258.503 104.17 258.777 103.553L257.863 103.147C257.595 103.752 257.328 104.32 257.065 104.852L257.961 105.296ZM259.567 101.69C259.7 101.362 259.833 101.026 259.967 100.682L259.035 100.32C258.903 100.66 258.771 100.991 258.64 101.314L259.567 101.69ZM259.967 100.682C260.092 100.359 260.218 100.038 260.343 99.7168L259.412 99.3529C259.286 99.6742 259.161 99.9964 259.035 100.32L259.967 100.682ZM261.094 97.8044C261.344 97.1709 261.594 96.5413 261.843 95.9156L260.914 95.5453C260.664 96.1721 260.414 96.8027 260.164 97.4373L261.094 97.8044ZM262.59 94.0503C262.839 93.4325 263.088 92.8186 263.336 92.2085L262.41 91.8316C262.161 92.4428 261.912 93.0578 261.663 93.6768L262.59 94.0503ZM264.08 90.39C264.329 89.7836 264.578 89.1811 264.827 88.5826L263.904 88.1988C263.654 88.7985 263.405 89.4021 263.155 90.0096L264.08 90.39ZM265.623 86.6778C265.888 86.0474 266.153 85.4213 266.418 84.7996L265.497 84.4082C265.232 85.0312 264.967 85.6585 264.702 86.2903L265.623 86.6778ZM267.21 82.9479C267.474 82.335 267.737 81.7265 268 81.1223L267.084 80.723C266.82 81.3285 266.556 81.9383 266.291 82.5525L267.21 82.9479ZM268.789 79.323C269.054 78.7216 269.319 78.1246 269.583 77.532L268.67 77.1244C268.405 77.7184 268.14 78.3168 267.874 78.9196L268.789 79.323ZM270.429 75.6494C270.711 75.0269 270.992 74.4094 271.273 73.7968L270.364 73.38C270.082 73.9942 269.8 74.6133 269.518 75.2373L270.429 75.6494ZM272.114 71.9738C272.394 71.3711 272.674 70.7733 272.953 70.1804L272.049 69.7542C271.769 70.3487 271.488 70.9481 271.207 71.5524L272.114 71.9738ZM273.79 68.4163C274.082 67.805 274.374 67.199 274.665 66.5983L273.766 66.1619C273.473 66.7644 273.181 67.3721 272.888 67.9852L273.79 68.4163ZM275.565 64.7574C275.865 64.1494 276.164 63.547 276.462 62.9502L275.568 62.5027C275.268 63.1014 274.968 63.7057 274.668 64.3155L275.565 64.7574ZM277.357 61.1764C277.655 60.5907 277.952 60.0105 278.249 59.4359L277.361 58.9768C277.063 59.5534 276.764 60.1355 276.466 60.7232L277.357 61.1764ZM279.175 57.6602C279.495 57.0499 279.816 56.446 280.136 55.8485L279.254 55.3765C278.933 55.9763 278.612 56.5824 278.29 57.1949L279.175 57.6602ZM281.094 54.075C281.413 53.4902 281.731 52.9117 282.049 52.3394L281.175 51.8537C280.856 52.4283 280.536 53.0091 280.216 53.5962L281.094 54.075ZM283.002 50.6415C283.34 50.0451 283.677 49.4558 284.014 48.8735L283.148 48.3729C282.81 48.9578 282.471 49.5497 282.132 50.1487L283.002 50.6415ZM285.042 47.1145C285.384 46.5354 285.725 45.9635 286.066 45.3989L285.21 44.8819C284.868 45.4494 284.524 46.024 284.181 46.6058L285.042 47.1145ZM287.088 43.7263C287.44 43.1557 287.792 42.5929 288.143 42.0376L287.298 41.5031C286.945 42.0614 286.591 42.6273 286.237 43.2008L287.088 43.7263ZM289.248 40.313C289.615 39.7464 289.982 39.1881 290.348 38.6381L289.516 38.0839C289.147 38.6373 288.778 39.1989 288.409 39.7688L289.248 40.313ZM291.445 37.0124C291.824 36.4583 292.202 35.9131 292.579 35.3765L291.761 34.8011C291.381 35.3414 291.001 35.8903 290.62 36.4479L291.445 37.0124ZM293.767 33.7136C294.162 33.1688 294.556 32.6335 294.95 32.1075L294.149 31.5083C293.753 32.0384 293.355 32.5777 292.957 33.1265L293.767 33.7136ZM296.129 30.5576C296.548 30.015 296.967 29.4829 297.384 28.9613L296.604 28.3362C296.182 28.8624 295.76 29.3989 295.337 29.9461L296.129 30.5576ZM298.661 27.3965C299.086 26.8858 299.51 26.3858 299.933 25.8965L299.176 25.2425C298.749 25.7368 298.321 26.2416 297.892 26.7572L298.661 27.3965ZM301.246 24.4081C301.706 23.8976 302.165 23.3997 302.623 22.9142L301.896 22.228C301.433 22.7192 300.968 23.2227 300.503 23.7386L301.246 24.4081ZM303.994 21.4946C304.464 21.0196 304.933 20.5576 305.401 20.1084L304.708 19.3872C304.234 19.8425 303.759 20.3104 303.283 20.7913L303.994 21.4946ZM306.883 18.7242C307.375 18.277 307.867 17.8438 308.357 17.4246L307.707 16.6645C307.209 17.0903 306.71 17.53 306.21 17.9837L306.883 18.7242ZM309.892 16.1546C310.423 15.7298 310.952 15.3212 311.48 14.9284L310.883 14.1261C310.345 14.5261 309.807 14.9419 309.267 15.3738L309.892 16.1546ZM313.059 13.7972C313.625 13.4082 314.188 13.0372 314.75 12.6839L314.218 11.8373C313.644 12.1982 313.069 12.5768 312.492 12.9735L313.059 13.7972ZM316.44 11.6715C317.024 11.339 317.606 11.0253 318.187 10.73L317.733 9.8387C317.138 10.1413 316.542 10.4624 315.945 10.8025L316.44 11.6715ZM319.978 9.87416C320.585 9.60314 321.19 9.35194 321.793 9.12008L321.434 8.18668C320.814 8.42499 320.193 8.68299 319.57 8.96113L319.978 9.87416ZM323.67 8.45859C324.299 8.25676 324.927 8.07566 325.553 7.91476L325.304 6.94623C324.659 7.11205 324.013 7.29857 323.364 7.50631L323.67 8.45859ZM327.492 7.47932C328.14 7.35467 328.786 7.25126 329.431 7.16846L329.303 6.17661C328.638 6.26206 327.971 6.36876 327.303 6.49732L327.492 7.47932ZM331.402 6.97842C332.06 6.93606 332.716 6.91472 333.37 6.91376L333.369 5.91376C332.694 5.91476 332.017 5.93677 331.338 5.98048L331.402 6.97842ZM335.346 6.97246C336.003 7.01231 336.658 7.07225 337.312 7.15161L337.432 6.1589C336.759 6.07716 336.084 6.01539 335.407 5.9743L335.346 6.97246ZM339.266 7.44684C339.913 7.56362 340.559 7.69895 341.203 7.85221L341.434 6.87935C340.773 6.72196 340.109 6.58286 339.444 6.46275L339.266 7.44684ZM343.116 8.3603C343.746 8.54523 344.376 8.74688 345.004 8.96466L345.332 8.01979C344.688 7.79689 344.044 7.5903 343.397 7.4007L343.116 8.3603ZM346.862 9.656C347.473 9.89914 348.084 10.1571 348.693 10.4293L349.101 9.51623C348.479 9.23856 347.856 8.9752 347.231 8.72676L346.862 9.656ZM350.489 11.2733C351.08 11.5652 351.671 11.87 352.261 12.1874L352.735 11.3067C352.135 10.984 351.534 10.6737 350.931 10.3765L350.489 11.2733ZM353.993 13.1558C354.566 13.4882 355.138 13.8319 355.709 14.1865L356.236 13.3369C355.657 12.9773 355.077 12.6284 354.495 12.2909L353.993 13.1558ZM357.379 15.2551C357.935 15.6212 358.49 15.9971 359.044 16.3825L359.615 15.5615C359.054 15.1715 358.492 14.7909 357.929 14.42L357.379 15.2551ZM360.656 17.5313C361.193 17.9228 361.729 18.3228 362.264 18.7308L362.871 17.9354C362.33 17.5233 361.788 17.1192 361.245 16.7234L360.656 17.5313ZM363.836 19.9522C364.355 20.3639 364.874 20.7828 365.392 21.2085L366.027 20.4358C365.504 20.0065 364.981 19.5839 364.457 19.1685L363.836 19.9522ZM366.929 22.4916C367.433 22.9195 367.937 23.3535 368.44 23.7932L369.098 23.0403C368.591 22.5974 368.084 22.1603 367.576 21.7291L366.929 22.4916ZM369.946 25.128C370.438 25.569 370.928 26.0152 371.419 26.4662L372.096 25.7302C371.603 25.2766 371.109 24.8277 370.615 24.3839L369.946 25.128ZM372.888 27.8333C373.372 28.2883 373.855 28.7478 374.338 29.2113L375.03 28.4898C374.545 28.0241 374.059 27.5624 373.573 27.1049L372.888 27.8333ZM375.775 30.6034C376.253 31.0702 376.73 31.5408 377.207 32.0146L377.912 31.3053C377.433 30.8296 376.954 30.3571 376.474 29.8882L375.775 30.6034ZM378.618 33.4272C379.088 33.9011 379.557 34.3779 380.027 34.8574L380.741 34.1579C380.271 33.677 379.799 33.1986 379.328 32.723L378.618 33.4272ZM381.424 36.2934C381.887 36.7723 382.35 37.2536 382.813 37.7368L383.535 37.0451C383.071 36.5608 382.607 36.0783 382.143 35.5981L381.424 36.2934ZM384.2 39.1913C384.659 39.6746 385.117 40.1595 385.575 40.6457L386.303 39.9599C385.844 39.4729 385.385 38.987 384.925 38.5028L384.2 39.1913ZM386.949 42.1083C387.178 42.3527 387.407 42.5974 387.636 42.8422L388.366 42.1596C388.137 41.9144 387.908 41.6694 387.679 41.4247L386.949 42.1083ZM387.636 42.8422C387.866 43.0886 388.099 43.332 388.335 43.5724L389.049 42.872C388.818 42.6374 388.591 42.3999 388.366 42.1596L387.636 42.8422ZM389.785 44.9801C390.279 45.4375 390.785 45.8834 391.301 46.318L391.945 45.553C391.44 45.1283 390.947 44.6927 390.464 44.2461L389.785 44.9801ZM392.87 47.5796C393.404 47.9891 393.947 48.3877 394.501 48.7756L395.075 47.9567C394.533 47.577 394.001 47.1869 393.479 46.7864L392.87 47.5796ZM396.174 49.8969C396.737 50.258 397.31 50.6089 397.891 50.9499L398.397 50.0873C397.827 49.7529 397.266 49.4088 396.713 49.055L396.174 49.8969ZM399.658 51.9411C400.243 52.2556 400.837 52.5607 401.439 52.8568L401.88 51.9595C401.289 51.6686 400.706 51.3688 400.131 51.06L399.658 51.9411ZM403.266 53.7177C403.875 53.992 404.49 54.2575 405.113 54.5146L405.494 53.5903C404.881 53.3372 404.276 53.0758 403.677 52.8061L403.266 53.7177ZM406.979 55.2527C407.608 55.4905 408.243 55.7202 408.884 55.942L409.211 54.9969C408.579 54.7782 407.953 54.5517 407.333 54.3173L406.979 55.2527ZM410.78 56.5692C411.417 56.7704 412.058 56.9644 412.706 57.1511L412.983 56.1903C412.344 56.0058 411.71 55.8144 411.082 55.6157L410.78 56.5692ZM414.651 57.6867C415.292 57.8551 415.938 58.0168 416.588 58.172L416.82 57.1993C416.177 57.0458 415.538 56.8859 414.905 56.7195L414.651 57.6867ZM418.553 58.6182C419.205 58.7588 419.86 58.8933 420.52 59.0217L420.711 58.0401C420.058 57.913 419.409 57.7799 418.764 57.6407L418.553 58.6182ZM422.487 59.3849C423.147 59.5002 423.81 59.6096 424.476 59.7135L424.63 58.7254C423.97 58.6225 423.313 58.514 422.659 58.3999L422.487 59.3849ZM426.456 60.0044C427.115 60.0954 427.777 60.1811 428.442 60.2618L428.562 59.269C427.903 59.1891 427.247 59.104 426.593 59.0138L426.456 60.0044ZM430.444 60.4883C431.105 60.5579 431.768 60.6225 432.433 60.6824L432.523 59.6865C431.862 59.627 431.204 59.5628 430.549 59.4938L430.444 60.4883ZM434.429 60.8477C435.097 60.8982 435.766 60.9441 436.437 60.9856L436.499 59.9875C435.832 59.9463 435.167 59.9007 434.505 59.8506L434.429 60.8477ZM438.432 61.0957C439.097 61.1281 439.765 61.1563 440.433 61.1804L440.469 60.181C439.805 60.1571 439.142 60.129 438.48 60.0969L438.432 61.0957ZM442.442 61.2407C443.107 61.2566 443.773 61.2687 444.44 61.277L444.453 60.2771C443.789 60.2688 443.127 60.2568 442.466 60.241L442.442 61.2407ZM446.443 61.2908C447.111 61.2917 447.78 61.2889 448.449 61.2827L448.44 60.2827C447.774 60.2889 447.109 60.2917 446.444 60.2908L446.443 61.2908ZM450.45 61.2537C451.117 61.2406 451.784 61.2241 452.451 61.2044L452.422 60.2049C451.758 60.2245 451.094 60.2408 450.43 60.2538L450.45 61.2537ZM454.453 61.1357C455.12 61.1096 455.787 61.0804 456.454 61.0482L456.406 60.0493C455.742 60.0814 455.078 60.1105 454.414 60.1365L454.453 61.1357ZM458.453 60.9426C459.119 60.9044 459.784 60.8634 460.449 60.8196L460.383 59.8218C459.721 59.8654 459.059 59.9062 458.396 59.9442L458.453 60.9426ZM462.45 60.6793C463.116 60.6298 463.781 60.5776 464.445 60.5228L464.363 59.5262C463.701 59.5807 463.039 59.6327 462.376 59.682L462.45 60.6793ZM466.433 60.351C467.101 60.2906 467.768 60.2278 468.433 60.1626L468.336 59.1673C467.673 59.2323 467.009 59.2949 466.344 59.355L466.433 60.351ZM470.424 59.9599C471.086 59.89 471.746 59.8179 472.404 59.7436L472.292 58.7499C471.636 58.8239 470.979 58.8958 470.319 58.9654L470.424 59.9599ZM474.403 59.511C475.067 59.4314 475.729 59.3497 476.388 59.266L476.262 58.274C475.605 58.3574 474.946 58.4388 474.284 58.5181L474.403 59.511ZM478.362 59.0089C479.03 58.9196 479.696 58.8284 480.358 58.7355L480.219 57.7452C479.559 57.8378 478.896 57.9287 478.23 58.0177L478.362 59.0089ZM482.335 58.4517C482.995 58.3548 483.653 58.2562 484.306 58.1561L484.155 57.1676C483.503 57.2674 482.848 57.3657 482.19 57.4623L482.335 58.4517ZM486.296 57.8451C486.956 57.74 487.611 57.6334 488.262 57.5257L488.099 56.5391C487.45 56.6466 486.796 56.7528 486.139 56.8576L486.296 57.8451ZM490.236 57.193C490.901 57.0789 491.561 56.9636 492.216 56.8474L492.042 55.8628C491.388 55.9787 490.73 56.0936 490.067 56.2074L490.236 57.193ZM494.166 56.4956C494.833 56.3733 495.495 56.25 496.15 56.126L495.965 55.1434C495.311 55.2671 494.651 55.39 493.985 55.512L494.166 56.4956ZM498.113 55.7491C498.77 55.6211 499.42 55.4926 500.063 55.3638L499.866 54.3833C499.225 54.5118 498.577 54.64 497.922 54.7676L498.113 55.7491ZM502.044 54.961C502.696 54.8265 503.34 54.6918 503.977 54.5572L503.77 53.5788C503.135 53.7131 502.492 53.8474 501.842 53.9816L502.044 54.961ZM505.957 54.1324C506.615 53.9895 507.263 53.8469 507.9 53.7048L507.683 52.7288C507.047 52.8704 506.401 53.0127 505.745 53.1552L505.957 54.1324ZM509.857 53.2633C510.52 53.1119 511.171 52.9614 511.808 52.8123L511.58 51.8386C510.944 51.9873 510.296 52.1374 509.634 52.2884L509.857 53.2633ZM513.75 52.3524C514.417 52.1926 515.067 52.0349 515.7 51.8796L515.462 50.9084C514.83 51.0633 514.182 51.2206 513.517 51.3799L513.75 52.3524ZM517.643 51.3972C518.308 51.2303 518.95 51.067 519.568 50.9079L519.319 49.9394C518.702 50.098 518.062 50.2609 517.4 50.4273L517.643 51.3972ZM521.532 50.3968C522.203 50.2199 522.84 50.0497 523.441 49.8875L523.181 48.9221C522.582 49.0838 521.947 49.2534 521.277 49.4298L521.532 50.3968ZM525.352 49.3646C526.074 49.1646 526.721 48.9821 527.289 48.8199L527.015 47.8584C526.449 48.0198 525.805 48.2016 525.085 48.401L525.352 49.3646ZM529.245 48.2513C529.541 48.1635 529.766 48.0955 529.918 48.0494C529.994 48.0263 530.052 48.0087 530.09 47.9969C530.11 47.991 530.124 47.9865 530.134 47.9834C530.139 47.9819 530.143 47.9808 530.145 47.98C530.146 47.9796 530.147 47.9793 530.148 47.9791C530.148 47.979 530.149 47.9789 530.149 47.9789C530.149 47.9788 530.149 47.9788 530.149 47.9788C530.149 47.9788 530.149 47.9788 530.149 47.9788C530.149 47.9788 530.149 47.9788 530.149 47.9788C530.149 47.9788 530.149 47.9788 530.001 47.5012C529.853 47.0236 529.853 47.0236 529.853 47.0236C529.853 47.0236 529.853 47.0236 529.853 47.0236C529.853 47.0236 529.853 47.0236 529.853 47.0236C529.853 47.0236 529.853 47.0236 529.853 47.0236C529.853 47.0237 529.853 47.0237 529.852 47.0238C529.852 47.024 529.851 47.0242 529.85 47.0246C529.848 47.0253 529.844 47.0264 529.839 47.0278C529.83 47.0307 529.816 47.0351 529.797 47.0408C529.759 47.0524 529.703 47.0697 529.628 47.0925C529.478 47.138 529.254 47.2054 528.96 47.2927L529.245 48.2513Z" fill="white" style="fill:white;fill-opacity:1;"/>
</svg>
