<svg width="1259" height="435" viewBox="0 0 1259 435" fill="none" xmlns="http://www.w3.org/2000/svg">
    <circle cx="740.5" cy="431.5" r="3.5" transform="rotate(180 740.5 431.5)" fill="white"
        style="fill:white;fill-opacity:1;" />
    <circle cx="1094.5" cy="273.5" r="3.5" transform="rotate(180 1094.5 273.5)" fill="white"
        style="fill:white;fill-opacity:1;" />
    <circle cx="1235.5" cy="380.5" r="3.5" transform="rotate(180 1235.5 380.5)" fill="white"
        style="fill:white;fill-opacity:1;" />
    <circle cx="1087.5" cy="38.5" r="3.5" transform="rotate(180 1087.5 38.5)" fill="white"
        style="fill:white;fill-opacity:1;" />
    <circle cx="1255.5" cy="138.5" r="3.5" transform="rotate(180 1255.5 138.5)" fill="white"
        style="fill:white;fill-opacity:1;" />
    <circle cx="936.5" cy="134.5" r="3.5" transform="rotate(180 936.5 134.5)" fill="white"
        style="fill:white;fill-opacity:1;" />
    <circle cx="300.5" cy="404.5" r="3.5" transform="rotate(180 300.5 404.5)" fill="white"
        style="fill:white;fill-opacity:1;" />
    <circle cx="186.5" cy="214.5" r="3.5" transform="rotate(180 186.5 214.5)" fill="white"
        style="fill:white;fill-opacity:1;" />
    <circle cx="58.5" cy="357.5" r="3.5" transform="rotate(180 58.5 357.5)" fill="white"
        style="fill:white;fill-opacity:1;" />
    <circle cx="381.5" cy="181.5" r="3.5" transform="rotate(180 381.5 181.5)" fill="white"
        style="fill:white;fill-opacity:1;" />
    <circle cx="589.5" cy="3.5" r="3.5" transform="rotate(180 589.5 3.5)" fill="white"
        style="fill:white;fill-opacity:1;" />
    <circle cx="3.5" cy="18.5" r="3.5" transform="rotate(180 3.5 18.5)" fill="white"
        style="fill:white;fill-opacity:1;" />
    <circle cx="245.5" cy="38.5" r="3.5" transform="rotate(180 245.5 38.5)" fill="white"
        style="fill:white;fill-opacity:1;" />
</svg>