<svg width="50" height="50" viewBox="0 0 50 50" fill="none" xmlns="http://www.w3.org/2000/svg">
    <g filter="url(#filter0_b_843_3970)">
        <rect width="50" height="50" rx="25" fill="#D9D9D9" fill-opacity="0.01"
            style="fill:#D9D9D9;fill:color(display-p3 0.8510 0.8510 0.8510);fill-opacity:0.01;" />
        <rect x="0.308642" y="0.308642" width="49.3827" height="49.3827" rx="24.6914" stroke="white"
            stroke-opacity="0.2" style="stroke:white;stroke-opacity:0.2;" stroke-width="0.617284" />
        <mask id="mask0_843_3970" style="mask-type:alpha" maskUnits="userSpaceOnUse" x="5" y="4"
            width="41" height="41">
            <circle cx="25.3085" cy="24.6916" r="19.7531" fill="#D9D9D9"
                style="fill:#D9D9D9;fill:color(display-p3 0.8510 0.8510 0.8510);fill-opacity:1;" />
        </mask>
        <g mask="url(#mask0_843_3970)">
            <circle cx="25.3085" cy="24.6916" r="19.7531" fill="#212121"
                style="fill:#212121;fill:color(display-p3 0.1294 0.1294 0.1294);fill-opacity:1;" />
            <path
                d="M13.423 27.5745C13.7219 27.5745 13.9496 27.5069 14.1061 27.3717C14.2698 27.2294 14.3516 27.0159 14.3516 26.7313C14.3516 26.4609 14.2662 26.2545 14.0955 26.1122C13.9318 25.9628 13.6898 25.888 13.3696 25.888C13.2558 25.888 13.1597 25.8916 13.0814 25.8987C13.0103 25.8987 12.9356 25.9058 12.8573 25.9201V27.5745H13.423ZM12.868 31.0009C12.7897 31.0222 12.6651 31.0436 12.4944 31.0649C12.3307 31.0863 12.167 31.097 12.0034 31.097C11.8397 31.097 11.6938 31.0827 11.5657 31.0543C11.4448 31.0329 11.3416 30.9902 11.2562 30.9262C11.1708 30.8621 11.1067 30.7732 11.064 30.6593C11.0213 30.5455 11 30.396 11 30.211V25.1836C11 25.0341 11.0391 24.9203 11.1174 24.842C11.2028 24.7566 11.3167 24.689 11.459 24.6392C11.7009 24.5538 11.9749 24.4933 12.2809 24.4577C12.594 24.415 12.9071 24.3937 13.2202 24.3937C14.2022 24.3937 14.9529 24.6036 15.4724 25.0234C15.9919 25.4433 16.2516 26.0126 16.2516 26.7313C16.2516 27.08 16.1947 27.3966 16.0808 27.6813C15.9741 27.9588 15.8104 28.2007 15.5898 28.4071C15.3763 28.6064 15.1024 28.7629 14.7679 28.8768C14.4406 28.9835 14.0599 29.0369 13.6258 29.0369H12.868V31.0009Z"
                fill="white" style="fill:white;fill-opacity:1;" />
            <path
                d="M19.6503 31.2144C19.2304 31.2144 18.8391 31.1574 18.4761 31.0436C18.1203 30.9226 17.8072 30.7447 17.5368 30.5099C17.2735 30.2751 17.0636 29.9797 16.9071 29.6239C16.7576 29.2681 16.6829 28.8519 16.6829 28.3751C16.6829 27.9054 16.7576 27.5034 16.9071 27.1689C17.0636 26.8274 17.2664 26.5498 17.5155 26.3363C17.7645 26.1158 18.0492 25.9556 18.3694 25.856C18.6896 25.7493 19.017 25.6959 19.3514 25.6959C19.7286 25.6959 20.0701 25.7528 20.3761 25.8667C20.6892 25.9805 20.9561 26.1371 21.1767 26.3363C21.4044 26.5356 21.5787 26.774 21.6997 27.0515C21.8278 27.329 21.8918 27.6315 21.8918 27.9588C21.8918 28.2007 21.8242 28.3858 21.689 28.5138C21.5538 28.6419 21.3652 28.7238 21.1233 28.7593L18.4868 29.1543C18.5651 29.3891 18.7252 29.567 18.9671 29.688C19.2091 29.8018 19.4866 29.8588 19.7997 29.8588C20.0915 29.8588 20.3654 29.8232 20.6216 29.752C20.8849 29.6738 21.0984 29.5848 21.2621 29.4852C21.3759 29.5563 21.472 29.656 21.5503 29.7841C21.6285 29.9121 21.6677 30.0473 21.6677 30.1897C21.6677 30.5099 21.5182 30.7483 21.2194 30.9048C20.9916 31.0258 20.7355 31.1076 20.4508 31.1503C20.1662 31.193 19.8993 31.2144 19.6503 31.2144ZM19.3514 27.0195C19.1806 27.0195 19.0312 27.0479 18.9031 27.1049C18.7821 27.1618 18.6825 27.2365 18.6042 27.329C18.526 27.4144 18.4655 27.514 18.4228 27.6279C18.3872 27.7346 18.3658 27.8449 18.3587 27.9588L20.184 27.6599C20.1626 27.5176 20.0844 27.3753 19.9492 27.233C19.8139 27.0906 19.6147 27.0195 19.3514 27.0195Z"
                fill="white" style="fill:white;fill-opacity:1;" />
            <path
                d="M24.9854 29.8908C25.1064 29.8908 25.2381 29.8801 25.3804 29.8588C25.5298 29.8303 25.6401 29.7947 25.7113 29.752V28.8981L24.9427 28.9622C24.7435 28.9764 24.5798 29.0191 24.4517 29.0902C24.3237 29.1614 24.2596 29.2681 24.2596 29.4105C24.2596 29.5528 24.313 29.6702 24.4197 29.7627C24.5336 29.8481 24.7222 29.8908 24.9854 29.8908ZM24.9001 25.6959C25.2843 25.6959 25.633 25.735 25.9461 25.8133C26.2663 25.8916 26.5367 26.0126 26.7573 26.1762C26.985 26.3328 27.1594 26.5356 27.2804 26.7847C27.4013 27.0266 27.4618 27.3148 27.4618 27.6493V30.0402C27.4618 30.2252 27.4084 30.3782 27.3017 30.4992C27.2021 30.6131 27.0811 30.7127 26.9388 30.7981C26.4762 31.0756 25.8251 31.2144 24.9854 31.2144C24.6083 31.2144 24.2667 31.1788 23.9607 31.1076C23.6619 31.0365 23.4021 30.9297 23.1815 30.7874C22.9681 30.6451 22.8008 30.4636 22.6799 30.243C22.566 30.0224 22.5091 29.7663 22.5091 29.4745C22.5091 28.9835 22.655 28.6064 22.9467 28.3431C23.2385 28.0798 23.6903 27.9161 24.3023 27.8521L25.7006 27.7026V27.6279C25.7006 27.4215 25.6081 27.2757 25.4231 27.1903C25.2452 27.0978 24.9854 27.0515 24.6439 27.0515C24.3735 27.0515 24.1102 27.08 23.854 27.1369C23.5978 27.1938 23.3666 27.265 23.1602 27.3504C23.0677 27.2863 22.9894 27.1903 22.9254 27.0622C22.8613 26.927 22.8293 26.7882 22.8293 26.6459C22.8293 26.4609 22.872 26.315 22.9574 26.2083C23.0499 26.0944 23.1887 25.9983 23.3737 25.9201C23.58 25.8418 23.822 25.7849 24.0995 25.7493C24.3841 25.7137 24.651 25.6959 24.9001 25.6959Z"
                fill="white" style="fill:white;fill-opacity:1;" />
            <path
                d="M33.6415 30.1043C33.6059 30.4387 33.5063 30.6949 33.3426 30.8728C33.1861 31.0507 32.9548 31.1397 32.6488 31.1397C32.4211 31.1397 32.2183 31.0863 32.0404 30.9795C31.8625 30.8657 31.6703 30.6771 31.464 30.4138L30.4073 29.0902V31.0329C30.329 31.0471 30.2116 31.0649 30.055 31.0863C29.9056 31.1147 29.7526 31.129 29.596 31.129C29.4395 31.129 29.2972 31.1183 29.1691 31.097C29.0481 31.0756 28.9449 31.0329 28.8595 30.9689C28.7741 30.9048 28.7065 30.8194 28.6567 30.7127C28.614 30.5988 28.5927 30.453 28.5927 30.2751V24.0948C28.6709 24.0735 28.7848 24.0521 28.9342 24.0308C29.0908 24.0023 29.2473 23.9881 29.4039 23.9881C29.5604 23.9881 29.6992 23.9987 29.8202 24.0201C29.9483 24.0414 30.055 24.0841 30.1404 24.1482C30.2258 24.2122 30.2898 24.3012 30.3325 24.415C30.3823 24.5218 30.4073 24.6641 30.4073 24.842V27.6599L32.2432 25.7813C32.6132 25.7813 32.9085 25.8631 33.1291 26.0268C33.3568 26.1905 33.4707 26.3968 33.4707 26.6459C33.4707 26.7526 33.4529 26.8523 33.4173 26.9448C33.3817 27.0302 33.3248 27.1191 33.2465 27.2116C33.1754 27.3041 33.0793 27.4037 32.9583 27.5105C32.8445 27.6101 32.7093 27.7275 32.5527 27.8627L31.9336 28.3964L33.6415 30.1043Z"
                fill="white" style="fill:white;fill-opacity:1;" />
            <path
                d="M35.1261 29.72C35.0478 29.5421 34.9624 29.3429 34.8699 29.1223C34.7845 28.9017 34.692 28.649 34.5924 28.3644C34.4999 28.0798 34.4002 27.756 34.2935 27.3931C34.1939 27.023 34.0871 26.5996 33.9733 26.1229C34.0729 26.0232 34.2046 25.9379 34.3682 25.8667C34.539 25.7884 34.724 25.7493 34.9233 25.7493C35.1723 25.7493 35.3787 25.8026 35.5424 25.9094C35.706 26.009 35.827 26.2011 35.9053 26.4858L36.7485 29.4211H36.7912C36.8766 29.1792 36.9585 28.9159 37.0367 28.6313C37.1221 28.3466 37.204 28.0549 37.2822 27.756C37.3605 27.45 37.4317 27.1476 37.4957 26.8487C37.5669 26.5427 37.6274 26.2438 37.6772 25.9521C37.9333 25.8169 38.2144 25.7493 38.5204 25.7493C38.7695 25.7493 38.9758 25.8026 39.1395 25.9094C39.3032 26.0161 39.385 26.2011 39.385 26.4644C39.385 26.6566 39.3601 26.8807 39.3103 27.1369C39.2605 27.386 39.1929 27.6528 39.1075 27.9374C39.0292 28.2221 38.9331 28.5174 38.8193 28.8234C38.7125 29.1223 38.5987 29.4176 38.4777 29.7093C38.3567 30.0011 38.2322 30.2786 38.1041 30.5419C37.976 30.7981 37.8515 31.0294 37.7305 31.2357C37.5313 31.5844 37.3463 31.869 37.1755 32.0896C37.0047 32.3102 36.841 32.481 36.6845 32.602C36.5279 32.7301 36.3714 32.8155 36.2148 32.8582C36.0583 32.908 35.8946 32.9329 35.7238 32.9329C35.425 32.9329 35.183 32.8439 34.998 32.666C34.813 32.4881 34.7027 32.2569 34.6671 31.9722C34.8948 31.7943 35.1225 31.5951 35.3502 31.3745C35.5779 31.161 35.7843 30.9404 35.9693 30.7127C35.8484 30.6771 35.7167 30.5953 35.5744 30.4672C35.4392 30.332 35.2897 30.0829 35.1261 29.72Z"
                fill="white" style="fill:white;fill-opacity:1;" />
            <path
                d="M26.0626 34.3031C26.1261 34.3127 26.196 34.3176 26.2724 34.3177C26.3531 34.3147 26.4138 34.3048 26.4545 34.2881L26.5225 33.84L26.1141 33.8124C26.0084 33.804 25.9191 33.8134 25.8463 33.8405C25.7734 33.8677 25.7313 33.9186 25.72 33.9933C25.7086 34.068 25.7273 34.1338 25.7759 34.1909C25.8289 34.2447 25.9244 34.2821 26.0626 34.3031ZM26.3517 32.0951C26.5533 32.1257 26.7332 32.174 26.8912 32.24C27.053 32.3065 27.1853 32.3915 27.288 32.495C27.3951 32.5953 27.4704 32.7156 27.514 32.8559C27.5583 32.9925 27.5671 33.1485 27.5404 33.324L27.3501 34.5786C27.3354 34.6757 27.2952 34.7517 27.2296 34.8067C27.1683 34.8585 27.0968 34.9012 27.0154 34.9347C26.7506 35.0435 26.3979 35.0645 25.9572 34.9976C25.7593 34.9676 25.5829 34.9217 25.428 34.8601C25.2769 34.7989 25.1491 34.7222 25.0447 34.63C24.944 34.5383 24.8707 34.4298 24.8247 34.3044C24.7826 34.1796 24.7731 34.0406 24.7963 33.8876C24.8354 33.6299 24.9419 33.4436 25.116 33.3287C25.2901 33.2137 25.5402 33.1638 25.8664 33.1789L26.612 33.2118L26.618 33.1726C26.6344 33.0643 26.5975 32.9804 26.5072 32.9209C26.4212 32.8582 26.2886 32.8132 26.1094 32.786C25.9675 32.7645 25.827 32.7585 25.6881 32.768C25.5491 32.7775 25.4221 32.7964 25.307 32.8248C25.2636 32.7838 25.2302 32.7272 25.2067 32.6549C25.1839 32.5788 25.1781 32.5035 25.1895 32.4288C25.2042 32.3317 25.2382 32.2585 25.2915 32.2093C25.3491 32.1569 25.4296 32.1176 25.5329 32.0912C25.6474 32.0666 25.7789 32.056 25.9274 32.0594C26.0796 32.0634 26.221 32.0753 26.3517 32.0951Z"
                fill="#FF0019"
                style="fill:#FF0019;fill:color(display-p3 1.0000 0.0000 0.0985);fill-opacity:1;" />
            <path
                d="M27.9413 33.8145C27.9787 33.5681 28.0483 33.3609 28.1502 33.193C28.2526 33.0214 28.3782 32.8857 28.5271 32.7861C28.6796 32.687 28.8479 32.6227 29.0319 32.5933C29.2202 32.5608 29.417 32.5601 29.6224 32.5912C29.697 32.6026 29.7687 32.6211 29.8374 32.6468C29.9066 32.6687 29.9623 32.6924 30.0042 32.7179L30.1419 31.8106C30.1809 31.805 30.2424 31.8029 30.3262 31.8041C30.4106 31.8017 30.4958 31.8069 30.5816 31.82C30.6638 31.8324 30.7358 31.8491 30.7975 31.8699C30.863 31.8913 30.9157 31.9222 30.9554 31.9626C30.9951 32.003 31.0216 32.0548 31.0349 32.1179C31.0489 32.1773 31.0487 32.2537 31.0346 32.3471L30.6319 35.0019C30.6052 35.1774 30.5018 35.305 30.3217 35.3846C30.2026 35.4391 30.0533 35.4795 29.8736 35.5057C29.6933 35.5357 29.4912 35.5337 29.2671 35.4997C29.0244 35.4629 28.8111 35.3961 28.6271 35.2995C28.4469 35.2034 28.2992 35.0816 28.184 34.9343C28.0726 34.7875 27.9947 34.621 27.9504 34.4347C27.9103 34.2453 27.9073 34.0386 27.9413 33.8145ZM29.6382 33.3557C29.4366 33.3251 29.2728 33.3595 29.147 33.4588C29.0211 33.5581 28.9404 33.7254 28.9047 33.9607C28.8696 34.1922 28.8933 34.3753 28.976 34.5101C29.0593 34.6412 29.1961 34.7211 29.3866 34.75C29.4538 34.7602 29.515 34.7599 29.5701 34.7492C29.6295 34.7353 29.6761 34.7175 29.7099 34.6959L29.8968 33.4637C29.829 33.4076 29.7427 33.3716 29.6382 33.3557Z"
                fill="#FF0019"
                style="fill:#FF0019;fill:color(display-p3 1.0000 0.0000 0.0985);fill-opacity:1;" />
            <path
                d="M33.5539 35.2274C33.5109 35.5112 33.3707 35.7172 33.1335 35.8455C32.8964 35.9738 32.5705 36.0065 32.156 35.9436C31.9992 35.9198 31.8553 35.8866 31.7243 35.8438C31.5932 35.801 31.4826 35.7498 31.3923 35.6903C31.3063 35.6276 31.2407 35.5565 31.1954 35.477C31.1539 35.3982 31.1405 35.3102 31.1553 35.2131C31.1689 35.1235 31.1989 35.0516 31.2453 34.9976C31.2922 34.9398 31.345 34.8943 31.4035 34.8611C31.5027 34.9373 31.6177 35.0101 31.7485 35.0796C31.8836 35.146 32.0426 35.193 32.2256 35.2208C32.3413 35.2383 32.4316 35.2348 32.4965 35.2103C32.5651 35.1863 32.6036 35.1463 32.6121 35.0903C32.62 35.038 32.6038 34.9936 32.5636 34.9569C32.5233 34.9202 32.4523 34.8846 32.3506 34.8501L32.1876 34.791C31.8724 34.6782 31.6447 34.5425 31.5045 34.3837C31.3687 34.2217 31.32 34.0138 31.3585 33.7599C31.3795 33.6217 31.4283 33.5012 31.505 33.3982C31.5818 33.2953 31.68 33.2147 31.7996 33.1564C31.9192 33.0982 32.0568 33.0598 32.2124 33.0414C32.3717 33.0236 32.5428 33.0285 32.7258 33.0563C32.864 33.0772 32.9911 33.108 33.1072 33.1485C33.2276 33.1858 33.3295 33.2319 33.4128 33.2865C33.4962 33.3412 33.559 33.4061 33.601 33.4812C33.6437 33.5526 33.6582 33.6332 33.6446 33.7228C33.6316 33.8087 33.6035 33.8808 33.5602 33.9392C33.5213 33.9944 33.4744 34.0388 33.4197 34.0726C33.3926 34.0494 33.3507 34.0239 33.2937 33.9962C33.2374 33.9647 33.1749 33.9361 33.1062 33.9104C33.0381 33.881 32.9675 33.855 32.8946 33.8325C32.8253 33.8105 32.7608 33.795 32.7011 33.7859C32.5779 33.7672 32.4804 33.7677 32.4086 33.7874C32.3375 33.8033 32.2973 33.8412 32.2883 33.9009C32.282 33.942 32.2956 33.9784 32.329 34.0102C32.3624 34.0421 32.4296 34.0771 32.5308 34.1153L32.6985 34.1809C33.0445 34.3174 33.2811 34.4698 33.4084 34.6381C33.5399 34.8032 33.5885 34.9997 33.5539 35.2274Z"
                fill="#FF0019"
                style="fill:#FF0019;fill:color(display-p3 1.0000 0.0000 0.0985);fill-opacity:1;" />
            <path
                d="M20.1279 18.2733C20.4454 17.7493 20.8435 17.4687 20.8603 17.4569L20.8711 17.4491C22.4757 16.2042 24.6496 15.6613 26.1906 15.4253C27.1965 15.2712 28.0758 15.2253 28.589 15.2123L28.5868 15.1894C28.5763 15.0827 28.6646 14.9922 28.7716 15.0005L29.486 15.0563C29.5462 15.061 29.5911 15.1137 29.5868 15.1739L29.579 15.2753C32.4785 15.7624 34.643 16.3586 36.0135 17.0473C37.1586 17.6231 37.5697 18.1669 37.8212 18.6227C37.9775 18.9061 37.9276 19.1939 37.669 19.503C37.6615 19.5117 37.6541 19.5207 37.6466 19.5291C37.4467 19.7576 37.166 19.9083 36.8563 19.9532C36.154 20.0552 34.7497 20.2683 33.236 20.5523C30.392 21.0856 28.5459 21.6019 27.7484 22.0865C27.5968 22.1786 27.4151 22.2735 27.2079 22.3686C26.8644 22.5262 26.4976 22.6505 26.1181 22.7382C25.5209 22.8759 24.2248 23.2257 23.0816 23.5339C22.7104 23.634 22.3526 23.7305 22.036 23.8151C21.9362 23.8418 21.8357 23.8545 21.7365 23.8545C21.2478 23.8545 20.7939 23.5441 20.6311 23.061C20.3763 22.3042 20.1204 21.4964 19.8712 20.6611C19.6107 19.788 19.6975 18.9846 20.1288 18.2733H20.1279Z"
                fill="#FF0019"
                style="fill:#FF0019;fill:color(display-p3 1.0000 0.0000 0.0985);fill-opacity:1;" />
            <path
                d="M38.008 20.6167C38.1329 20.6167 38.2601 20.635 38.3856 20.6707L38.5543 20.7184C38.608 20.7336 38.6539 20.7612 38.6867 20.7978C38.6898 20.8015 38.6932 20.8052 38.696 20.8089C38.7621 20.8911 38.777 21.017 38.7404 21.1832C38.652 21.585 38.2973 21.8898 37.8784 21.9249C37.3417 21.9695 36.0772 21.8533 35.1287 21.6402C36.4412 20.9612 37.4089 20.6167 38.0052 20.6167H38.008Z"
                fill="#FF0019"
                style="fill:#FF0019;fill:color(display-p3 1.0000 0.0000 0.0985);fill-opacity:1;" />
            <path
                d="M28.0096 22.5043C28.7822 22.0345 30.6017 21.5288 33.4171 21.0008C34.6872 20.7626 35.88 20.5744 36.6437 20.46C35.044 21.0377 33.0032 22.3024 32.0888 22.895C31.8203 23.0689 31.5111 23.1756 31.1949 23.2032C29.892 23.3176 28.6207 23.1486 27.7835 22.9867C27.6102 22.9532 27.4372 22.9167 27.2663 22.8773C27.3265 22.8522 27.386 22.8261 27.4446 22.7991C27.6601 22.7002 27.8502 22.601 28.0096 22.5043Z"
                fill="#FF0019"
                style="fill:#FF0019;fill:color(display-p3 1.0000 0.0000 0.0985);fill-opacity:1;" />
        </g>
    </g>
    <defs>
        <filter id="filter0_b_843_3970" x="-12.3457" y="-12.3457" width="74.6914" height="74.6914"
            filterUnits="userSpaceOnUse" color-interpolation-filters="sRGB">
            <feFlood flood-opacity="0" result="BackgroundImageFix" />
            <feGaussianBlur in="BackgroundImageFix" stdDeviation="6.17284" />
            <feComposite in2="SourceAlpha" operator="in" result="effect1_backgroundBlur_843_3970" />
            <feBlend mode="normal" in="SourceGraphic" in2="effect1_backgroundBlur_843_3970"
                result="shape" />
        </filter>
    </defs>
</svg>