<svg width="59" height="47" viewBox="0 0 59 47" fill="none" xmlns="http://www.w3.org/2000/svg">
<path d="M6.286 25.6113C6.88672 25.6113 7.34442 25.4754 7.65908 25.2036C7.98805 24.9176 8.15254 24.4885 8.15254 23.9164C8.15254 23.3729 7.9809 22.9581 7.63763 22.672C7.30866 22.3717 6.82236 22.2215 6.17872 22.2215C5.94988 22.2215 5.75679 22.2286 5.59945 22.2429C5.45642 22.2429 5.30624 22.2572 5.14891 22.2858V25.6113H6.286ZM5.17037 32.4982C5.01303 32.5411 4.76273 32.584 4.41946 32.6269C4.09049 32.6698 3.76152 32.6913 3.43255 32.6913C3.10359 32.6913 2.81037 32.6627 2.55292 32.6054C2.30977 32.5625 2.10238 32.4767 1.93074 32.348C1.75911 32.2193 1.63038 32.0405 1.54456 31.8116C1.45874 31.5828 1.41583 31.2824 1.41583 30.9105V20.8055C1.41583 20.5051 1.4945 20.2763 1.65183 20.1189C1.82347 19.9473 2.05232 19.8114 2.33838 19.7113C2.82468 19.5397 3.37534 19.4181 3.99037 19.3466C4.6197 19.2608 5.24903 19.2179 5.87836 19.2179C7.85217 19.2179 9.36114 19.6398 10.4053 20.4837C11.4494 21.3275 11.9714 22.4718 11.9714 23.9164C11.9714 24.6172 11.857 25.2537 11.6282 25.8258C11.4136 26.3836 11.0846 26.8699 10.6413 27.2847C10.2122 27.6852 9.6615 27.9999 8.98926 28.2287C8.33132 28.4433 7.56611 28.5505 6.69363 28.5505H5.17037V32.4982ZM18.8027 32.9273C17.9588 32.9273 17.1721 32.8128 16.4427 32.584C15.7275 32.3408 15.0982 31.9833 14.5547 31.5113C14.0255 31.0393 13.6035 30.4457 13.2889 29.7305C12.9885 29.0154 12.8383 28.1787 12.8383 27.2204C12.8383 26.2764 12.9885 25.4683 13.2889 24.796C13.6035 24.1095 14.0112 23.5517 14.5118 23.1226C15.0124 22.6792 15.5845 22.3574 16.2281 22.1571C16.8718 21.9426 17.5297 21.8353 18.2019 21.8353C18.96 21.8353 19.6465 21.9497 20.2616 22.1786C20.8909 22.4074 21.4273 22.7221 21.8707 23.1226C22.3283 23.523 22.6788 24.0022 22.9219 24.56C23.1794 25.1178 23.3081 25.7257 23.3081 26.3836C23.3081 26.8699 23.1722 27.2418 22.9005 27.4993C22.6287 27.7567 22.2497 27.9212 21.7634 27.9927L16.4641 28.7865C16.6215 29.2585 16.9433 29.6161 17.4296 29.8593C17.9159 30.0881 18.4737 30.2025 19.103 30.2025C19.6895 30.2025 20.2401 30.131 20.755 29.988C21.2842 29.8307 21.7133 29.6519 22.0423 29.4516C22.2711 29.5947 22.4642 29.7949 22.6216 30.0524C22.7789 30.3098 22.8576 30.5816 22.8576 30.8676C22.8576 31.5113 22.5572 31.9904 21.9565 32.3051C21.4988 32.5482 20.9839 32.7127 20.4118 32.7985C19.8396 32.8843 19.3033 32.9273 18.8027 32.9273ZM18.2019 24.4957C17.8587 24.4957 17.5583 24.5529 17.3009 24.6673C17.0577 24.7817 16.8575 24.9319 16.7001 25.1178C16.5428 25.2895 16.4212 25.4897 16.3354 25.7186C16.2639 25.9331 16.221 26.1548 16.2067 26.3836L19.8754 25.7829C19.8325 25.4969 19.6751 25.2108 19.4034 24.9247C19.1316 24.6387 18.7312 24.4957 18.2019 24.4957ZM29.5262 30.2669C29.7694 30.2669 30.034 30.2454 30.32 30.2025C30.6204 30.1453 30.8421 30.0738 30.9851 29.988V28.2716L29.4404 28.4004C29.0399 28.429 28.7109 28.5148 28.4535 28.6578C28.196 28.8008 28.0673 29.0154 28.0673 29.3015C28.0673 29.5875 28.1746 29.8235 28.3891 30.0094C28.618 30.1811 28.997 30.2669 29.5262 30.2669ZM29.3546 21.8353C30.1269 21.8353 30.8278 21.914 31.4571 22.0713C32.1007 22.2286 32.6443 22.4718 33.0877 22.8007C33.5453 23.1154 33.8958 23.523 34.1389 24.0237C34.3821 24.51 34.5036 25.0892 34.5036 25.7615V30.5673C34.5036 30.9391 34.3964 31.2467 34.1818 31.4898C33.9816 31.7187 33.7384 31.9189 33.4524 32.0905C32.5227 32.6483 31.214 32.9273 29.5262 32.9273C28.7682 32.9273 28.0816 32.8557 27.4666 32.7127C26.8659 32.5697 26.3438 32.3551 25.9004 32.0691C25.4713 31.783 25.1352 31.4183 24.892 30.9749C24.6632 30.5315 24.5488 30.0166 24.5488 29.4302C24.5488 28.4433 24.842 27.6852 25.4284 27.156C26.0148 26.6268 26.9231 26.2978 28.1531 26.1691L30.9637 25.8687V25.7186C30.9637 25.3038 30.7777 25.0106 30.4058 24.8389C30.0483 24.653 29.5262 24.56 28.8397 24.56C28.2962 24.56 27.7669 24.6172 27.252 24.7316C26.7371 24.8461 26.2723 24.9891 25.8575 25.1607C25.6716 25.032 25.5142 24.8389 25.3855 24.5815C25.2568 24.3097 25.1924 24.0308 25.1924 23.7447C25.1924 23.3729 25.2782 23.0797 25.4499 22.8651C25.6358 22.6363 25.9147 22.4432 26.2866 22.2858C26.7014 22.1285 27.1877 22.0141 27.7455 21.9426C28.3176 21.8711 28.854 21.8353 29.3546 21.8353ZM46.9246 30.696C46.8531 31.3682 46.6528 31.8831 46.3239 32.2407C46.0092 32.5983 45.5444 32.7771 44.9293 32.7771C44.4716 32.7771 44.064 32.6698 43.7064 32.4553C43.3489 32.2264 42.9627 31.8474 42.5479 31.3182L40.4239 28.6578V32.5625C40.2666 32.5911 40.0306 32.6269 39.7159 32.6698C39.4155 32.727 39.108 32.7556 38.7934 32.7556C38.4787 32.7556 38.1926 32.7342 37.9352 32.6913C37.692 32.6483 37.4846 32.5625 37.313 32.4338C37.1414 32.3051 37.0055 32.1334 36.9054 31.9189C36.8196 31.69 36.7766 31.3968 36.7766 31.0393V18.6171C36.934 18.5742 37.1628 18.5313 37.4632 18.4884C37.7779 18.4312 38.0925 18.4026 38.4072 18.4026C38.7218 18.4026 39.0008 18.424 39.2439 18.4669C39.5014 18.5099 39.7159 18.5957 39.8875 18.7244C40.0592 18.8531 40.1879 19.0319 40.2737 19.2608C40.3738 19.4753 40.4239 19.7614 40.4239 20.1189V25.7829L44.1141 22.0069C44.8578 22.0069 45.4514 22.1714 45.8948 22.5004C46.3525 22.8294 46.5813 23.2441 46.5813 23.7447C46.5813 23.9593 46.5456 24.1595 46.4741 24.3455C46.4025 24.5171 46.2881 24.6959 46.1308 24.8818C45.9878 25.0678 45.7947 25.268 45.5515 25.4826C45.3227 25.6828 45.0509 25.9188 44.7363 26.1906L43.4919 27.2633L46.9246 30.696ZM49.9086 29.9236C49.7513 29.5661 49.5797 29.1656 49.3937 28.7222C49.2221 28.2788 49.0361 27.771 48.8359 27.1989C48.65 26.6268 48.4497 25.976 48.2352 25.2466C48.0349 24.5028 47.8204 23.6518 47.5915 22.6935C47.7918 22.4932 48.0564 22.3216 48.3854 22.1786C48.7286 22.0212 49.1005 21.9426 49.501 21.9426C50.0016 21.9426 50.4164 22.0498 50.7453 22.2644C51.0743 22.4646 51.3175 22.8508 51.4748 23.4229L53.1697 29.3229H53.2555C53.4272 28.8366 53.5916 28.3074 53.749 27.7353C53.9206 27.1632 54.0851 26.5767 54.2424 25.976C54.3998 25.361 54.5428 24.7531 54.6715 24.1524C54.8145 23.5374 54.9361 22.9366 55.0362 22.3502C55.5511 22.0784 56.1161 21.9426 56.7311 21.9426C57.2317 21.9426 57.6465 22.0498 57.9755 22.2644C58.3045 22.4789 58.469 22.8508 58.469 23.38C58.469 23.7662 58.4189 24.2167 58.3188 24.7316C58.2186 25.2323 58.0828 25.7686 57.9111 26.3407C57.7538 26.9129 57.5607 27.5064 57.3319 28.1215C57.1173 28.7222 56.8885 29.3158 56.6453 29.9022C56.4022 30.4886 56.1519 31.0464 55.8944 31.5756C55.637 32.0905 55.3867 32.5554 55.1435 32.9702C54.743 33.671 54.3711 34.2431 54.0279 34.6865C53.6846 35.1299 53.3556 35.4732 53.041 35.7163C52.7263 35.9738 52.4116 36.1454 52.097 36.2312C51.7823 36.3314 51.4533 36.3814 51.1101 36.3814C50.5093 36.3814 50.023 36.2026 49.6512 35.8451C49.2793 35.4875 49.0576 35.0226 48.9861 34.4505C49.4438 34.0929 49.9015 33.6925 50.3592 33.2491C50.8169 32.82 51.2316 32.3766 51.6035 31.9189C51.3604 31.8474 51.0958 31.6829 50.8097 31.4254C50.538 31.1537 50.2376 30.6531 49.9086 29.9236Z" fill="white" style="fill:white;fill-opacity:1;"/>
<path opacity="0.2" d="M31.8026 39.187C31.9302 39.2064 32.0708 39.2162 32.2243 39.2164C32.3865 39.2103 32.5085 39.1904 32.5904 39.1568L32.727 38.2562L31.9062 38.2008C31.6937 38.1839 31.5143 38.2027 31.3678 38.2573C31.2213 38.3119 31.1367 38.4142 31.1139 38.5643C31.0912 38.7144 31.1287 38.8468 31.2265 38.9614C31.3329 39.0697 31.5249 39.1449 31.8026 39.187ZM32.3837 34.749C32.789 34.8105 33.1505 34.9076 33.4682 35.0402C33.7934 35.174 34.0592 35.3448 34.2657 35.5528C34.4808 35.7543 34.6323 35.9961 34.72 36.2781C34.8089 36.5527 34.8266 36.8663 34.7731 37.2191L34.3905 39.7408C34.3609 39.936 34.2802 40.0888 34.1482 40.1993C34.025 40.3034 33.8814 40.3892 33.7177 40.4564C33.1854 40.6752 32.4765 40.7173 31.5909 40.583C31.1931 40.5227 30.8385 40.4305 30.5272 40.3065C30.2234 40.1836 29.9665 40.0295 29.7566 39.8441C29.5542 39.6598 29.4069 39.4417 29.3146 39.1897C29.2298 38.9388 29.2107 38.6595 29.2574 38.3518C29.336 37.8339 29.5502 37.4595 29.9 37.2285C30.2498 36.9975 30.7526 36.8971 31.4083 36.9275L32.907 36.9936L32.9189 36.9148C32.9519 36.6971 32.8777 36.5285 32.6962 36.4088C32.5234 36.2828 32.2569 36.1924 31.8966 36.1378C31.6114 36.0945 31.3292 36.0824 31.0499 36.1015C30.7706 36.1205 30.5153 36.1586 30.284 36.2156C30.1966 36.1333 30.1294 36.0195 30.0824 35.8741C30.0365 35.7213 30.0249 35.5698 30.0477 35.4197C30.0773 35.2245 30.1456 35.0775 30.2528 34.9786C30.3686 34.8733 30.5303 34.7942 30.7379 34.7412C30.9681 34.6917 31.2324 34.6704 31.5308 34.6772C31.8367 34.6852 32.121 34.7092 32.3837 34.749ZM35.5788 38.205C35.6539 37.7097 35.7939 37.2933 35.9986 36.9558C36.2045 36.6108 36.457 36.3382 36.7561 36.1378C37.0627 35.9386 37.4009 35.8095 37.7708 35.7504C38.1492 35.685 38.5449 35.6836 38.9577 35.7462C39.1078 35.769 39.2518 35.8062 39.3899 35.8578C39.5291 35.902 39.6408 35.9497 39.7252 36.0008L40.0019 34.1771C40.0803 34.1659 40.2038 34.1616 40.3724 34.1642C40.542 34.1592 40.7132 34.1698 40.8858 34.196C41.0509 34.221 41.1955 34.2545 41.3197 34.2964C41.4514 34.3394 41.5571 34.4015 41.637 34.4827C41.7168 34.5639 41.7701 34.6679 41.7969 34.7949C41.8249 34.9143 41.8246 35.0678 41.7962 35.2554L40.9867 40.5916C40.9332 40.9444 40.7254 41.2008 40.3633 41.3609C40.124 41.4704 39.8238 41.5516 39.4626 41.6043C39.1003 41.6645 38.694 41.6604 38.2437 41.5921C37.7558 41.5181 37.327 41.384 36.9572 41.1897C36.5949 40.9965 36.2981 40.7519 36.0666 40.4557C35.8426 40.1607 35.6861 39.826 35.597 39.4516C35.5165 39.0709 35.5105 38.6554 35.5788 38.205ZM38.9895 37.2828C38.5842 37.2213 38.2551 37.2904 38.0021 37.49C37.7492 37.6897 37.5868 38.0259 37.5151 38.4988C37.4445 38.9641 37.4924 39.3322 37.6586 39.6031C37.8259 39.8665 38.101 40.0272 38.4837 40.0853C38.6188 40.1058 38.7418 40.1052 38.8525 40.0837C38.9719 40.0557 39.0656 40.02 39.1337 39.9766L39.5093 37.4998C39.3729 37.387 39.1996 37.3147 38.9895 37.2828ZM46.86 41.0449C46.7734 41.6153 46.4918 42.0294 46.015 42.2873C45.5383 42.5451 44.8834 42.6108 44.0503 42.4845C43.7351 42.4366 43.4458 42.3697 43.1824 42.2837C42.9191 42.1977 42.6967 42.0949 42.5152 41.9752C42.3424 41.8492 42.2105 41.7063 42.1195 41.5466C42.0361 41.3881 42.0091 41.2113 42.0387 41.0161C42.0661 40.836 42.1264 40.6916 42.2196 40.5829C42.314 40.4667 42.42 40.3753 42.5376 40.3086C42.7371 40.4617 42.9682 40.6081 43.2311 40.7478C43.5027 40.8812 43.8223 40.9757 44.1901 41.0315C44.4227 41.0668 44.6042 41.0598 44.7346 41.0104C44.8724 40.9622 44.9499 40.8819 44.9669 40.7693C44.9829 40.6642 44.9504 40.5748 44.8694 40.5011C44.7885 40.4274 44.6457 40.3559 44.4413 40.2864L44.1138 40.1677C43.4802 39.941 43.0225 39.6681 42.7408 39.349C42.4677 39.0235 42.3698 38.6056 42.4473 38.0952C42.4894 37.8175 42.5876 37.5752 42.7418 37.3683C42.896 37.1613 43.0934 36.9993 43.3338 36.8822C43.5742 36.7651 43.8508 36.6881 44.1635 36.651C44.4838 36.6152 44.8278 36.6251 45.1955 36.6809C45.4732 36.723 45.7287 36.7848 45.9621 36.8663C46.204 36.9414 46.4088 37.0339 46.5764 37.1437C46.744 37.2536 46.8701 37.3841 46.9547 37.5351C47.0404 37.6786 47.0696 37.8405 47.0423 38.0206C47.0161 38.1932 46.9596 38.3382 46.8727 38.4555C46.7944 38.5665 46.7002 38.6559 46.5902 38.7236C46.5358 38.677 46.4514 38.6258 46.337 38.5701C46.2238 38.5068 46.0981 38.4494 45.9601 38.3977C45.8232 38.3386 45.6814 38.2863 45.5347 38.2411C45.3955 38.1969 45.2659 38.1657 45.1458 38.1475C44.8981 38.11 44.7022 38.1109 44.558 38.1505C44.4149 38.1825 44.3343 38.2586 44.3161 38.3787C44.3035 38.4612 44.3308 38.5345 44.3979 38.5984C44.465 38.6623 44.6002 38.7327 44.8035 38.8096L45.1405 38.9414C45.836 39.2158 46.3116 39.5221 46.5674 39.8604C46.8319 40.1922 46.9294 40.5871 46.86 41.0449Z" fill="white" style="fill:white;fill-opacity:1;"/>
<g opacity="0.2">
<path d="M19.7625 6.57923C20.4007 5.52597 21.2009 4.96196 21.2346 4.93827L21.2564 4.92269C24.4816 2.42044 28.851 1.32917 31.9484 0.8549C33.9702 0.545157 35.7377 0.45292 36.7691 0.426744L36.7647 0.380625C36.7435 0.166236 36.9212 -0.015746 37.1362 0.00108114L38.5721 0.113262C38.693 0.12261 38.7834 0.228558 38.7746 0.349464L38.7591 0.553259C44.5868 1.53235 48.9376 2.73081 51.6922 4.11499C53.9938 5.27232 54.8202 6.36546 55.3256 7.2816C55.6397 7.85123 55.5394 8.42958 55.0196 9.05094C55.0047 9.06839 54.9897 9.08646 54.9748 9.10329C54.5728 9.56261 54.0088 9.86549 53.3862 9.95586C51.9745 10.1609 49.152 10.5891 46.1094 11.1599C40.3932 12.2319 36.6825 13.2696 35.0795 14.2437C34.7748 14.4288 34.4096 14.6195 33.9932 14.8108C33.3027 15.1274 32.5654 15.3773 31.8026 15.5537C30.6023 15.8304 27.9972 16.5334 25.6994 17.1529C24.9534 17.3542 24.2342 17.548 23.5978 17.7181C23.3972 17.7717 23.1952 17.7973 22.9958 17.7973C22.0136 17.7973 21.1012 17.1734 20.774 16.2024C20.2617 14.6812 19.7476 13.0577 19.2465 11.3787C18.723 9.62368 18.8975 8.0089 19.7644 6.57923H19.7625Z" fill="white" style="fill:white;fill-opacity:1;"/>
<path d="M55.701 11.2896C55.9522 11.2896 56.2077 11.3263 56.4601 11.398L56.7992 11.494C56.907 11.5245 56.9992 11.58 57.0653 11.6535C57.0715 11.661 57.0784 11.6685 57.084 11.676C57.2167 11.8411 57.2466 12.0941 57.1731 12.4282C56.9955 13.2359 56.2825 13.8485 55.4405 13.9189C54.3617 14.0087 51.8202 13.775 49.9138 13.3468C52.5519 11.982 54.497 11.2896 55.6954 11.2896H55.701Z" fill="white" style="fill:white;fill-opacity:1;"/>
<path d="M35.6044 15.083C37.1575 14.1389 40.8146 13.1224 46.4735 12.061C49.0262 11.5824 51.4237 11.2041 52.9587 10.9741C49.7435 12.1352 45.6415 14.6773 43.8036 15.8683C43.2638 16.2179 42.6425 16.4323 42.0068 16.4878C39.388 16.7178 36.8328 16.3781 35.1501 16.0528C34.8017 15.9855 34.4539 15.9119 34.1105 15.8328C34.2314 15.7823 34.3511 15.73 34.4689 15.6757C34.902 15.4769 35.2841 15.2775 35.6044 15.083Z" fill="white" style="fill:white;fill-opacity:1;"/>
</g>
</svg>
