<svg width="114" height="113" viewBox="0 0 114 113" fill="none" xmlns="http://www.w3.org/2000/svg">
<path d="M55.1532 53.1823L101.618 26.2924L105.755 33.4409C113.416 46.6788 115.385 59.8531 111.663 72.9636C107.94 86.0741 99.3719 96.5109 85.9575 104.274C71.6605 112.548 57.1092 114.784 42.3035 110.982C27.535 107.041 16.2692 98.3632 8.50609 84.9488C0.69194 71.4461 -1.28872 57.336 2.5641 42.6186C6.50518 27.85 15.3594 16.4821 29.1269 8.51473C37.6874 3.56066 46.6655 0.956735 56.0612 0.702962C65.4569 0.44918 74.0998 2.4571 81.9899 6.72671L71.5785 24.7684C67.1761 22.2503 62.0349 21.1023 56.1551 21.3241C50.2752 21.546 44.6436 23.2147 39.2601 26.3301C30.3466 31.4885 24.7512 38.6144 22.4738 47.7077C20.0943 56.6246 21.4837 65.5397 26.642 74.4533C31.6983 83.1903 38.7544 88.7672 47.8106 91.1839C56.8157 93.5123 66.128 91.8931 75.7476 86.3261C82.7196 82.2914 87.6505 77.3761 90.5403 71.5804C93.4302 65.7847 94.1047 59.6217 92.5639 53.0914L64.4995 69.3326L55.1532 53.1823Z" fill="white" style="fill:white;fill-opacity:1;"/>
</svg>
