<svg width="112" height="113" viewBox="0 0 112 113" fill="none" xmlns="http://www.w3.org/2000/svg">
<path d="M58.1935 52.5892L107.035 74.8739L103.606 82.3879C97.2574 96.3028 87.6621 105.542 74.8202 110.106C61.9784 114.67 48.5073 113.735 34.4068 107.302C19.3788 100.445 9.12387 89.8818 3.64216 75.6125C-1.70447 61.2928 -1.161 47.0827 5.27255 32.9823C11.7484 18.7891 22.0998 8.99807 36.3268 3.60911C50.6466 -1.73752 65.0422 -1.1094 79.5136 5.49345C88.5119 9.59907 95.8369 15.4069 101.489 22.917C107.14 30.4271 110.513 38.6344 111.605 47.5388L90.8685 49.5093C90.3694 44.4622 88.3257 39.607 84.7374 34.9437C81.1492 30.2804 76.5257 26.6578 70.867 24.0759C61.4976 19.801 52.4477 19.3704 43.7171 22.784C35.0713 26.0122 28.6109 32.311 24.3359 41.6803C20.1457 50.8641 19.6898 59.8465 22.9684 68.6275C26.2893 77.3157 33.0055 83.9666 43.117 88.5801C50.4455 91.9238 57.3088 93.094 63.7068 92.0904C70.1048 91.0869 75.5183 88.0651 79.9474 83.0251L50.4479 69.5654L58.1935 52.5892Z" fill="#4285F4" style="fill:#4285F4;fill:color(display-p3 0.2588 0.5216 0.9569);fill-opacity:1;"/>
</svg>
