<svg width="112" height="113" viewBox="0 0 112 113" fill="none" xmlns="http://www.w3.org/2000/svg">
<path d="M58.1933 52.5893L107.034 74.874L103.606 82.388C97.2572 96.3029 87.6618 105.542 74.82 110.106C61.9781 114.67 48.507 113.735 34.4066 107.302C19.3785 100.445 9.12363 89.8819 3.64191 75.6126C-1.70471 61.2929 -1.16125 47.0828 5.2723 32.9824C11.7482 18.7892 22.0996 8.99816 36.3266 3.60921C50.6463 -1.73742 65.0419 -1.10931 79.5134 5.49354C88.5117 9.59916 95.8367 15.407 101.488 22.9171C107.14 30.4272 110.512 38.6345 111.605 47.5389L90.8683 49.5094C90.3691 44.4623 88.3254 39.6071 84.7372 34.9438C81.1489 30.2805 76.5254 26.6579 70.8667 24.076C61.4974 19.8011 52.4474 19.3704 43.7169 22.7841C35.071 26.0123 28.6106 32.311 24.3357 41.6804C20.1454 50.8642 19.6896 59.8466 22.9682 68.6276C26.2891 77.3158 33.0053 83.9667 43.1168 88.5802C50.4453 91.9239 57.3085 93.0941 63.7065 92.0905C70.1045 91.087 75.5181 88.0652 79.9472 83.0252L50.4476 69.5655L58.1933 52.5893Z" fill="#34A853" style="fill:#34A853;fill:color(display-p3 0.2039 0.6588 0.3255);fill-opacity:1;"/>
</svg>
