<svg width="114" height="113" viewBox="0 0 114 113" fill="none" xmlns="http://www.w3.org/2000/svg">
<path d="M55.4115 53.0556L104.257 30.7793L107.684 38.2939C114.03 52.2099 114.718 65.5127 109.746 78.2024C104.775 90.8921 95.2385 100.452 81.137 106.884C66.1078 113.738 51.4085 114.558 37.0392 109.344C22.7204 103.995 12.3454 94.2696 5.91429 80.1681C-0.559163 65.9738 -1.16773 51.7384 4.08857 37.4619C9.43765 23.1431 19.3485 12.6835 33.8211 6.08309C42.8201 1.97901 52.0077 0.254418 61.384 0.909319C70.7602 1.56421 79.1688 4.39752 86.6096 9.40924L74.5044 26.361C70.3657 23.4295 65.3595 21.7902 59.4857 21.4432C53.6119 21.0961 47.8454 22.213 42.1863 24.794C32.8162 29.0673 26.5586 35.6194 23.4136 44.4503C20.184 53.0956 20.7058 62.1033 24.9792 71.4734C29.1679 80.6579 35.6524 86.8902 44.4328 90.1703C53.1709 93.3576 62.5961 92.6454 72.7084 88.0336C80.0375 84.6911 85.4201 80.2751 88.8562 74.7856C92.2923 69.2961 93.5589 63.2271 92.6561 56.5785L63.1542 70.0331L55.4115 53.0556Z" fill="#EA4335" style="fill:#EA4335;fill:color(display-p3 0.9176 0.2627 0.2078);fill-opacity:1;"/>
</svg>
