<svg width="114" height="113" viewBox="0 0 114 113" fill="none" xmlns="http://www.w3.org/2000/svg">
<path d="M55.4115 53.0555L104.257 30.7793L107.684 38.2939C114.03 52.2098 114.718 65.5127 109.746 78.2023C104.775 90.892 95.2385 100.452 81.137 106.884C66.1078 113.738 51.4085 114.558 37.0392 109.344C22.7204 103.995 12.3454 94.2695 5.91429 80.168C-0.559163 65.9737 -1.16773 51.7383 4.08857 37.4618C9.43765 23.143 19.3485 12.6834 33.8211 6.08303C42.8201 1.97895 52.0077 0.254357 61.384 0.909258C70.7602 1.56415 79.1688 4.39746 86.6096 9.40918L74.5044 26.3609C70.3657 23.4294 65.3595 21.7902 59.4857 21.4431C53.6119 21.096 47.8454 22.213 42.1863 24.7939C32.8162 29.0672 26.5586 35.6193 23.4136 44.4502C20.184 53.0955 20.7058 62.1032 24.9792 71.4733C29.1679 80.6578 35.6524 86.8902 44.4328 90.1703C53.1709 93.3576 62.5961 92.6453 72.7084 88.0335C80.0375 84.691 85.4201 80.275 88.8562 74.7855C92.2923 69.296 93.5589 63.227 92.6561 56.5784L63.1542 70.033L55.4115 53.0555Z" fill="#FBBC05" style="fill:#FBBC05;fill:color(display-p3 0.9843 0.7373 0.0196);fill-opacity:1;"/>
</svg>
