<svg width="80" height="59" viewBox="0 0 80 59" fill="none" xmlns="http://www.w3.org/2000/svg">
    <path
        d="M6.81277 35.3559C7.65311 35.3559 8.29337 35.1659 8.73355 34.7857C9.19374 34.3856 9.42383 33.7853 9.42383 32.985C9.42383 32.2247 9.18374 31.6444 8.70354 31.2443C8.24335 30.8241 7.56308 30.614 6.66271 30.614C6.34258 30.614 6.07247 30.624 5.85238 30.644C5.6523 30.644 5.44221 30.664 5.22212 30.7041V35.3559H6.81277ZM5.25214 44.9899C5.03205 45.0499 4.6819 45.1099 4.20171 45.1699C3.74152 45.23 3.28133 45.26 2.82115 45.26C2.36096 45.26 1.95079 45.22 1.59065 45.1399C1.25051 45.0799 0.960391 44.9599 0.720293 44.7798C0.480195 44.5997 0.300122 44.3496 0.180073 44.0295C0.0600244 43.7093 0 43.2892 0 42.769V28.6332C0 28.213 0.110045 27.8929 0.330134 27.6728C0.570232 27.4327 0.890362 27.2426 1.29052 27.1026C1.9708 26.8625 2.74111 26.6924 3.60146 26.5924C4.48182 26.4723 5.36218 26.4123 6.24254 26.4123C9.00366 26.4123 11.1145 27.0025 12.5751 28.183C14.0357 29.3635 14.766 30.9642 14.766 32.985C14.766 33.9654 14.6059 34.8557 14.2858 35.6561C13.9857 36.4364 13.5255 37.1167 12.9053 37.6969C12.305 38.2571 11.5347 38.6973 10.5943 39.0174C9.67393 39.3176 8.6035 39.4676 7.383 39.4676H5.25214V44.9899Z"
        fill="white" style="fill:white;fill-opacity:1;" />
    <path
        d="M24.3221 45.5901C23.1416 45.5901 22.0412 45.43 21.0207 45.1099C20.0203 44.7698 19.14 44.2696 18.3797 43.6093C17.6394 42.949 17.0491 42.1187 16.6089 41.1183C16.1888 40.1179 15.9787 38.9474 15.9787 37.6069C15.9787 36.2863 16.1888 35.1559 16.6089 34.2155C17.0491 33.2551 17.6194 32.4748 18.3196 31.8745C19.0199 31.2543 19.8203 30.8041 20.7206 30.524C21.621 30.2239 22.5414 30.0738 23.4817 30.0738C24.5422 30.0738 25.5026 30.2339 26.3629 30.554C27.2433 30.8741 27.9936 31.3143 28.6138 31.8745C29.2541 32.4348 29.7443 33.105 30.0844 33.8853C30.4446 34.6657 30.6246 35.516 30.6246 36.4364C30.6246 37.1167 30.4346 37.6369 30.0544 37.997C29.6743 38.3572 29.144 38.5873 28.4638 38.6873L21.0508 39.7978C21.2708 40.458 21.721 40.9582 22.4013 41.2984C23.0816 41.6185 23.8619 41.7786 24.7423 41.7786C25.5626 41.7786 26.3329 41.6785 27.0532 41.4784C27.7935 41.2584 28.3937 41.0082 28.8539 40.7281C29.1741 40.9282 29.4442 41.2083 29.6643 41.5685C29.8843 41.9286 29.9944 42.3088 29.9944 42.7089C29.9944 43.6093 29.5742 44.2796 28.7339 44.7198C28.0936 45.0599 27.3733 45.29 26.573 45.41C25.7727 45.5301 25.0224 45.5901 24.3221 45.5901ZM23.4817 33.7953C23.0015 33.7953 22.5814 33.8753 22.2212 34.0354C21.8811 34.1955 21.601 34.4056 21.3809 34.6657C21.1608 34.9058 20.9907 35.1859 20.8707 35.506C20.7706 35.8061 20.7106 36.1163 20.6906 36.4364L25.8227 35.596C25.7627 35.1959 25.5426 34.7957 25.1624 34.3956C24.7823 33.9954 24.222 33.7953 23.4817 33.7953Z"
        fill="white" style="fill:white;fill-opacity:1;" />
    <path
        d="M39.323 41.8686C39.6632 41.8686 40.0333 41.8386 40.4335 41.7786C40.8536 41.6985 41.1638 41.5985 41.3639 41.4784V39.0775L39.203 39.2575C38.6427 39.2976 38.1826 39.4176 37.8224 39.6177C37.4623 39.8178 37.2822 40.1179 37.2822 40.518C37.2822 40.9182 37.4323 41.2483 37.7324 41.5084C38.0525 41.7486 38.5827 41.8686 39.323 41.8686ZM39.0829 30.0738C40.1634 30.0738 41.1438 30.1838 42.0241 30.4039C42.9245 30.624 43.6848 30.9642 44.3051 31.4243C44.9453 31.8645 45.4355 32.4348 45.7757 33.135C46.1158 33.8153 46.2859 34.6257 46.2859 35.566V42.2888C46.2859 42.809 46.1358 43.2392 45.8357 43.5793C45.5556 43.8994 45.2154 44.1795 44.8153 44.4196C43.5147 45.2 41.684 45.5901 39.323 45.5901C38.2626 45.5901 37.3022 45.4901 36.4419 45.29C35.6015 45.0899 34.8712 44.7898 34.251 44.3896C33.6507 43.9895 33.1805 43.4793 32.8404 42.859C32.5203 42.2388 32.3602 41.5185 32.3602 40.6981C32.3602 39.3176 32.7704 38.2571 33.5907 37.5168C34.411 36.7765 35.6815 36.3163 37.4022 36.1363L41.3338 35.7161V35.506C41.3338 34.9258 41.0737 34.5156 40.5535 34.2755C40.0533 34.0154 39.323 33.8853 38.3626 33.8853C37.6023 33.8853 36.862 33.9654 36.1417 34.1254C35.4214 34.2855 34.7712 34.4856 34.1909 34.7257C33.9308 34.5456 33.7107 34.2755 33.5307 33.9154C33.3506 33.5352 33.2606 33.1451 33.2606 32.7449C33.2606 32.2247 33.3806 31.8145 33.6207 31.5144C33.8808 31.1943 34.271 30.9241 34.7912 30.7041C35.3714 30.484 36.0517 30.3239 36.832 30.2239C37.6323 30.1238 38.3826 30.0738 39.0829 30.0738Z"
        fill="white" style="fill:white;fill-opacity:1;" />
    <path
        d="M63.6613 42.4688C63.5612 43.4092 63.2811 44.1295 62.8209 44.6297C62.3808 45.1299 61.7305 45.38 60.8702 45.38C60.2299 45.38 59.6597 45.23 59.1595 44.9298C58.6593 44.6097 58.119 44.0795 57.5388 43.3392L54.5676 39.6177V45.0799C54.3475 45.1199 54.0174 45.1699 53.5772 45.23C53.157 45.31 52.7268 45.35 52.2867 45.35C51.8465 45.35 51.4463 45.32 51.0862 45.26C50.746 45.2 50.4559 45.0799 50.2158 44.8998C49.9757 44.7198 49.7856 44.4797 49.6456 44.1795C49.5255 43.8594 49.4655 43.4492 49.4655 42.949V25.572C49.6856 25.5119 50.0057 25.4519 50.4259 25.3919C50.8661 25.3119 51.3063 25.2718 51.7464 25.2718C52.1866 25.2718 52.5768 25.3019 52.9169 25.3619C53.2771 25.4219 53.5772 25.542 53.8173 25.722C54.0574 25.9021 54.2375 26.1522 54.3575 26.4723C54.4976 26.7725 54.5676 27.1726 54.5676 27.6728V35.596L59.7297 30.3139C60.7701 30.3139 61.6004 30.544 62.2207 31.0042C62.861 31.4644 63.1811 32.0446 63.1811 32.7449C63.1811 33.045 63.1311 33.3251 63.031 33.5852C62.931 33.8253 62.7709 34.0754 62.5508 34.3355C62.3508 34.5956 62.0806 34.8758 61.7405 35.1759C61.4204 35.456 61.0402 35.7861 60.6 36.1663L58.8593 37.6669L63.6613 42.4688Z"
        fill="white" style="fill:white;fill-opacity:1;" />
    <path
        d="M67.8356 41.3884C67.6155 40.8882 67.3754 40.328 67.1153 39.7077C66.8752 39.0875 66.6151 38.3772 66.335 37.5769C66.0748 36.7765 65.7947 35.8662 65.4946 34.8457C65.2145 33.8053 64.9144 32.6148 64.5942 31.2743C64.8744 30.9942 65.2445 30.7541 65.7047 30.554C66.1849 30.3339 66.7051 30.2239 67.2653 30.2239C67.9656 30.2239 68.5459 30.3739 69.006 30.674C69.4662 30.9542 69.8064 31.4944 70.0265 32.2947L72.3974 40.5481H72.5175C72.7576 39.8678 72.9877 39.1275 73.2077 38.3272C73.4478 37.5268 73.6779 36.7065 73.898 35.8662C74.1181 35.0058 74.3182 34.1555 74.4983 33.3151C74.6984 32.4548 74.8684 31.6144 75.0085 30.7941C75.7288 30.4139 76.5191 30.2239 77.3794 30.2239C78.0797 30.2239 78.66 30.3739 79.1202 30.674C79.5803 30.9742 79.8104 31.4944 79.8104 32.2347C79.8104 32.7749 79.7404 33.4052 79.6003 34.1254C79.4603 34.8257 79.2702 35.576 79.0301 36.3764C78.81 37.1767 78.5399 38.007 78.2198 38.8674C77.9197 39.7077 77.5995 40.5381 77.2594 41.3584C76.9193 42.1787 76.5691 42.959 76.209 43.6993C75.8488 44.4196 75.4987 45.0699 75.1585 45.6501C74.5983 46.6305 74.0781 47.4309 73.5979 48.0511C73.1177 48.6714 72.6575 49.1516 72.2173 49.4917C71.7772 49.8518 71.337 50.0919 70.8968 50.212C70.4566 50.352 69.9964 50.4221 69.5163 50.4221C68.6759 50.4221 67.9956 50.172 67.4754 49.6718C66.9552 49.1716 66.6451 48.5213 66.545 47.721C67.1853 47.2208 67.8256 46.6605 68.4658 46.0403C69.1061 45.4401 69.6863 44.8198 70.2065 44.1795C69.8664 44.0795 69.4962 43.8494 69.0961 43.4893C68.7159 43.1091 68.2958 42.4088 67.8356 41.3884Z"
        fill="white" style="fill:white;fill-opacity:1;" />
    <path
        d="M42.3517 54.2747C42.5302 54.3018 42.7268 54.3155 42.9415 54.3159C43.1684 54.3073 43.3391 54.2795 43.4536 54.2324L43.6447 52.9726L42.4965 52.8951C42.1994 52.8715 41.9483 52.8978 41.7434 52.9742C41.5385 53.0505 41.4201 53.1936 41.3883 53.4036C41.3564 53.6136 41.4089 53.7988 41.5457 53.9591C41.6945 54.1106 41.9632 54.2158 42.3517 54.2747ZM43.1645 48.0665C43.7314 48.1525 44.2371 48.2883 44.6816 48.4738C45.1365 48.661 45.5084 48.9 45.7972 49.1908C46.0981 49.4728 46.31 49.811 46.4327 50.2056C46.5571 50.5896 46.5818 51.0283 46.507 51.5218L45.9719 55.0494C45.9305 55.3224 45.8175 55.5362 45.6329 55.6908C45.4604 55.8365 45.2597 55.9564 45.0306 56.0505C44.286 56.3564 43.2943 56.4155 42.0555 56.2275C41.499 56.1431 41.003 56.0142 40.5675 55.8407C40.1425 55.6688 39.7831 55.4532 39.4895 55.1939C39.2064 54.9361 39.0003 54.631 38.8712 54.2784C38.7526 53.9275 38.7259 53.5368 38.7912 53.1063C38.9011 52.3819 39.2007 51.8581 39.6901 51.5349C40.1795 51.2118 40.8828 51.0714 41.8 51.1139L43.8965 51.2064L43.9132 51.0961C43.9594 50.7917 43.8556 50.5557 43.6017 50.3883C43.36 50.212 42.9871 50.0857 42.4832 50.0092C42.0842 49.9487 41.6894 49.9318 41.2987 49.9584C40.908 49.9851 40.5508 50.0383 40.2272 50.1181C40.1051 50.0029 40.0111 49.8437 39.9453 49.6404C39.881 49.4266 39.8648 49.2147 39.8967 49.0047C39.9381 48.7317 40.0337 48.526 40.1836 48.3877C40.3456 48.2404 40.5718 48.1297 40.8623 48.0556C41.1843 47.9863 41.554 47.9565 41.9714 47.9661C42.3993 47.9773 42.797 48.0108 43.1645 48.0665Z"
        fill="#FF0019"
        style="fill:#FF0019;fill:color(display-p3 1.0000 0.0000 0.0985);fill-opacity:1;" />
    <path
        d="M47.634 52.9011C47.7392 52.2081 47.9349 51.6256 48.2213 51.1535C48.5094 50.6709 48.8626 50.2895 49.281 50.0093C49.7099 49.7306 50.1831 49.55 50.7004 49.4674C51.2298 49.3758 51.7833 49.3739 52.3607 49.4614C52.5707 49.4933 52.7722 49.5454 52.9653 49.6176C53.16 49.6794 53.3164 49.746 53.4344 49.8176L53.8214 47.2664C53.9312 47.2508 54.1039 47.2448 54.3397 47.2484C54.577 47.2414 54.8164 47.2562 55.0579 47.2929C55.2889 47.3279 55.4912 47.3747 55.6649 47.4333C55.8491 47.4934 55.9971 47.5803 56.1087 47.6939C56.2204 47.8075 56.295 47.9531 56.3325 48.1306C56.3716 48.2977 56.3712 48.5124 56.3314 48.7749L55.1991 56.2396C55.1243 56.7331 54.8336 57.0918 54.327 57.3157C53.9923 57.469 53.5723 57.5825 53.0671 57.6562C52.5602 57.7404 51.9918 57.7348 51.3619 57.6392C50.6795 57.5357 50.0796 57.348 49.5623 57.0762C49.0556 56.806 48.6403 56.4638 48.3164 56.0495C48.0031 55.6368 47.7842 55.1686 47.6595 54.6449C47.547 54.1123 47.5385 53.531 47.634 52.9011ZM52.4052 51.6109C51.8382 51.5249 51.3779 51.6216 51.024 51.9009C50.6702 52.1801 50.4431 52.6505 50.3428 53.3119C50.244 53.9629 50.3109 54.4778 50.5434 54.8568C50.7775 55.2252 51.1623 55.4501 51.6977 55.5313C51.8867 55.56 52.0587 55.5592 52.2136 55.529C52.3807 55.4899 52.5118 55.44 52.6069 55.3792L53.1325 51.9146C52.9416 51.7567 52.6992 51.6555 52.4052 51.6109Z"
        fill="#FF0019"
        style="fill:#FF0019;fill:color(display-p3 1.0000 0.0000 0.0985);fill-opacity:1;" />
    <path
        d="M63.4151 56.8737C63.294 57.6716 62.9001 58.2509 62.2331 58.6116C61.5662 58.9723 60.6501 59.0642 59.4847 58.8874C59.0437 58.8205 58.6391 58.7269 58.2707 58.6066C57.9022 58.4863 57.5911 58.3424 57.3372 58.175C57.0955 57.9987 56.911 57.7989 56.7838 57.5755C56.667 57.3538 56.6294 57.1064 56.6708 56.8334C56.709 56.5814 56.7933 56.3794 56.9238 56.2274C57.0559 56.0648 57.2042 55.9369 57.3687 55.8437C57.6476 56.0579 57.971 56.2627 58.3388 56.4581C58.7186 56.6446 59.1658 56.7769 59.6802 56.8549C60.0057 56.9043 60.2596 56.8945 60.4419 56.8255C60.6347 56.758 60.7431 56.6456 60.767 56.4881C60.7892 56.3411 60.7438 56.2161 60.6305 56.113C60.5173 56.0099 60.3176 55.9098 60.0316 55.8127L59.5735 55.6465C58.6872 55.3295 58.047 54.9478 57.6528 54.5013C57.2708 54.046 57.1339 53.4613 57.2422 52.7474C57.3012 52.359 57.4385 52.02 57.6543 51.7305C57.87 51.441 58.1461 51.2144 58.4824 51.0506C58.8187 50.8868 59.2056 50.779 59.6431 50.7272C60.091 50.677 60.5723 50.6909 61.0867 50.769C61.4752 50.8279 61.8326 50.9143 62.159 51.0283C62.4975 51.1333 62.784 51.2627 63.0184 51.4164C63.2529 51.5701 63.4293 51.7526 63.5476 51.9639C63.6675 52.1647 63.7084 52.3911 63.6701 52.643C63.6335 52.8845 63.5544 53.0873 63.4329 53.2515C63.3234 53.4067 63.1917 53.5317 63.0376 53.6265C62.9616 53.5613 62.8436 53.4897 62.6836 53.4117C62.5251 53.3232 62.3494 53.2429 62.1563 53.1706C61.9647 53.0878 61.7664 53.0148 61.5612 52.9514C61.3665 52.8897 61.1851 52.8461 61.0172 52.8206C60.6707 52.768 60.3966 52.7694 60.1949 52.8247C59.9948 52.8696 59.882 52.976 59.8565 53.144C59.839 53.2594 59.8771 53.3619 59.971 53.4513C60.0648 53.5407 60.2539 53.6392 60.5383 53.7468L61.0098 53.9311C61.9827 54.315 62.648 54.7435 63.0059 55.2167C63.3758 55.6809 63.5122 56.2332 63.4151 56.8737Z"
        fill="#FF0019"
        style="fill:#FF0019;fill:color(display-p3 1.0000 0.0000 0.0985);fill-opacity:1;" />
    <path
        d="M25.665 9.20354C26.5577 7.73017 27.6771 6.94118 27.7242 6.90805L27.7547 6.88625C32.2664 3.38591 38.3787 1.85936 42.7116 1.1959C45.5398 0.762609 48.0123 0.63358 49.4551 0.596964L49.449 0.532449C49.4194 0.232544 49.6679 -0.0220267 49.9686 0.00151238L51.9773 0.158439C52.1464 0.171517 52.2729 0.319726 52.2606 0.488858L52.2388 0.773943C60.3912 2.14357 66.4774 3.82007 70.3308 5.75638C73.5504 7.37534 74.7065 8.90451 75.4135 10.1861C75.8529 10.9829 75.7125 11.792 74.9854 12.6612C74.9645 12.6856 74.9436 12.7109 74.9227 12.7344C74.3603 13.3769 73.5714 13.8006 72.7004 13.927C70.7257 14.2139 66.7773 14.8128 62.5211 15.6114C54.5248 17.1109 49.334 18.5625 47.0916 19.9252C46.6653 20.1841 46.1544 20.4509 45.5721 20.7185C44.6061 21.1614 43.5747 21.511 42.5076 21.7577C40.8285 22.1448 37.1843 23.1282 33.9699 23.9948C32.9264 24.2764 31.9203 24.5475 31.0302 24.7855C30.7494 24.8605 30.467 24.8963 30.188 24.8963C28.814 24.8963 27.5377 24.0236 27.0799 22.6653C26.3633 20.5372 25.6441 18.2661 24.9431 15.9174C24.2108 13.4624 24.4549 11.2035 25.6676 9.20354H25.665Z"
        fill="#FF0019"
        style="fill:#FF0019;fill:color(display-p3 1.0000 0.0000 0.0985);fill-opacity:1;" />
    <path
        d="M75.9387 15.7926C76.29 15.7926 76.6474 15.844 77.0005 15.9443L77.4748 16.0785C77.6256 16.1212 77.7546 16.1988 77.8471 16.3017C77.8558 16.3122 77.8654 16.3226 77.8732 16.3331C78.0589 16.5641 78.1008 16.9181 77.9979 17.3854C77.7494 18.5152 76.7521 19.3722 75.5742 19.4708C74.0651 19.5963 70.5098 19.2694 67.843 18.6704C71.5334 16.7611 74.2543 15.7926 75.9308 15.7926H75.9387Z"
        fill="#FF0019"
        style="fill:#FF0019;fill:color(display-p3 1.0000 0.0000 0.0985);fill-opacity:1;" />
    <path
        d="M47.826 21.0998C49.9985 19.779 55.1144 18.3571 63.0305 16.8724C66.6014 16.2028 69.9553 15.6736 72.1026 15.3519C67.6049 16.9761 61.8666 20.5323 59.2956 22.1983C58.5406 22.6874 57.6714 22.9873 56.7822 23.0649C53.1188 23.3866 49.5443 22.9115 47.1904 22.4564C46.7031 22.3622 46.2166 22.2594 45.7362 22.1486C45.9054 22.078 46.0727 22.0048 46.2375 21.9289C46.8434 21.6508 47.3779 21.3718 47.826 21.0998Z"
        fill="#FF0019"
        style="fill:#FF0019;fill:color(display-p3 1.0000 0.0000 0.0985);fill-opacity:1;" />
</svg>